<svg xmlns="http://www.w3.org/2000/svg" viewBox="0 0 200 200" width="200" height="200" role="img" aria-label="Balance">
  <defs>
    <radialGradient id="pg" cx="50%" cy="45%" r="65%"><stop offset="0%" stop-color="#17202e"></stop><stop offset="100%" stop-color="#0b111c"></stop></radialGradient>
    <filter id="pgrain"><feTurbulence type="fractalNoise" baseFrequency=".9" numOctaves="2" seed="5"></feTurbulence><feColorMatrix values="0 0 0 0 0 0 0 0 0 0 0 0 0 0 0 0 0 0 .06 0"></feColorMatrix></filter>
  </defs>
  <rect width="200" height="200" fill="url(#pg)"></rect>
  <rect width="200" height="200" filter="url(#pgrain)" opacity=".4"></rect>
  <rect x="12" y="12" width="176" height="176" fill="none" stroke="#d7b06a" stroke-opacity=".22"></rect>
  
  <line x1="100" y1="30" x2="100" y2="148" stroke="#e7ead0" stroke-width="2"></line>
  <line x1="36" y1="60" x2="164" y2="60" stroke="#d7b06a" stroke-width="2.5"></line>
  <circle cx="100" cy="60" r="5" fill="#d7b06a"></circle>
  <line x1="46" y1="60" x2="46" y2="86" stroke="#e7ead0" stroke-width="0.8" opacity=".7"></line>
  <line x1="60" y1="60" x2="60" y2="86" stroke="#e7ead0" stroke-width="0.8" opacity=".7"></line>
  <path d="M30 86 Q53 110 76 86 Z" fill="none" stroke="#e7ead0" stroke-width="2"></path>
  <line x1="140" y1="60" x2="140" y2="92" stroke="#e7ead0" stroke-width="0.8" opacity=".7"></line>
  <line x1="154" y1="60" x2="154" y2="92" stroke="#e7ead0" stroke-width="0.8" opacity=".7"></line>
  <path d="M122 92 Q147 116 170 92 Z" fill="none" stroke="#e7ead0" stroke-width="2"></path>
  <rect x="84" y="148" width="32" height="6" fill="#e7ead0"></rect>
  <rect x="76" y="154" width="48" height="4" fill="#e7ead0"></rect>
  <text x="100" y="180" text-anchor="middle" font-family="Geist Mono, monospace" font-size="8" fill="#d7b06a" letter-spacing="2">WAAGE · BALANCE</text>

</svg>