<svg xmlns="http://www.w3.org/2000/svg" viewBox="0 0 24 24" fill="none" stroke="currentColor" stroke-width="1.5" stroke-linecap="round" stroke-linejoin="round">
  <path d="M18.32 10.76 L19.89 10.85 L19.89 13.15 L18.32 13.24 L17.24 15.13 L17.94 16.53 L15.95 17.67 L15.09 16.37 L12.91 16.37 L12.05 17.67 L10.06 16.53 L10.76 15.13 L9.68 13.24 L8.11 13.15 L8.11 10.85 L9.68 10.76 L10.76 8.87 L10.06 7.47 L12.05 6.33 L12.91 7.63 L15.09 7.63 L15.95 6.33 L17.94 7.47 L17.24 8.87 Z"></path>
  <circle cx="14" cy="12" r="1.9"></circle>
  <path d="M2.8 12 H8.2"></path>
  <path d="M5.8 9.6 L8.2 12 L5.8 14.4"></path>
</svg>