<svg viewBox="0 0 240 300" xmlns="http://www.w3.org/2000/svg" class="ch-portrait">
  <defs>
    <radialGradient id="korrin-bg" cx="50%" cy="35%" r="70%">
      <stop offset="0%" stop-color="#5BD4D0" stop-opacity="0.18"/>
      <stop offset="100%" stop-color="#0F0B18" stop-opacity="0"/>
    </radialGradient>
    <linearGradient id="korrin-robe" x1="0" x2="0" y1="0" y2="1">
      <stop offset="0%" stop-color="#3A3148"/>
      <stop offset="100%" stop-color="#221932"/>
    </linearGradient>
  </defs>
  <rect width="240" height="300" fill="url(#korrin-bg)"/>
  <path d="M40,300 Q30,200 60,150 Q120,110 180,150 Q210,200 200,300 Z" fill="url(#korrin-robe)"/>
  <ellipse cx="120" cy="155" rx="62" ry="20" fill="#221932" opacity="0.7"/>
  <ellipse cx="120" cy="148" rx="44" ry="50" fill="#C8966E"/>
  <ellipse cx="120" cy="120" rx="40" ry="16" fill="#9A6E4A" opacity="0.3"/>
  <path d="M68,140 Q120,118 172,140 Q172,128 120,108 Q68,128 68,140 Z" fill="#3A3148" opacity="0.95"/>
  <path d="M68,138 Q120,120 172,138" stroke="#D8AE5A" stroke-width="1" fill="none" opacity="0.7"/>
  <ellipse cx="78" cy="155" rx="5" ry="9" fill="#9A6E4A"/>
  <ellipse cx="162" cy="155" rx="5" ry="9" fill="#9A6E4A"/>
  <ellipse cx="96" cy="170" rx="8" ry="4" fill="#9A6E4A" opacity="0.4"/>
  <ellipse cx="144" cy="170" rx="8" ry="4" fill="#9A6E4A" opacity="0.4"/>
  <path d="M98,158 Q106,162 114,158" stroke="#1A1326" stroke-width="2" fill="none" stroke-linecap="round"/>
  <path d="M126,158 Q134,162 142,158" stroke="#1A1326" stroke-width="2" fill="none" stroke-linecap="round"/>
  <path d="M96,150 L114,148" stroke="#9A6E4A" stroke-width="1.4" stroke-linecap="round"/>
  <path d="M126,148 L144,150" stroke="#9A6E4A" stroke-width="1.4" stroke-linecap="round"/>
  <path d="M120,164 Q118,180 122,186" stroke="#9A6E4A" stroke-width="1" fill="none" opacity="0.6"/>
  <path d="M112,196 Q120,198 128,196" stroke="#9A6E4A" stroke-width="1.4" fill="none" stroke-linecap="round"/>
  <circle cx="120" cy="138" r="3" fill="#5BD4D0" opacity="0.85"/>
  <g transform="translate(120,250)">
    <path d="M-8,-6 Q-8,-12 0,-12 Q8,-12 8,-6 L10,2 L-10,2 Z" fill="#D8AE5A"/>
    <rect x="-2" y="2" width="4" height="3" fill="#D8AE5A"/>
    <line x1="0" y1="-22" x2="0" y2="-12" stroke="#9A6E4A" stroke-width="0.8"/>
  </g>
  <path d="M120,230 L120,300" stroke="#221932" stroke-width="1.5" opacity="0.8"/>
</svg>
