<svg viewBox="0 0 120 200" xmlns="http://www.w3.org/2000/svg" class="ch-figurine">
  <defs>
    <radialGradient id="fig-shadow-e" cx="50%" cy="50%" r="50%">
      <stop offset="0%" stop-color="#000" stop-opacity="0.7"/>
      <stop offset="100%" stop-color="#000" stop-opacity="0"/>
    </radialGradient>
    <linearGradient id="figelara-dress" x1="0" x2="1" y1="0" y2="0">
      <stop offset="0%" stop-color="#22542F"/>
      <stop offset="50%" stop-color="#3D8A4F"/>
      <stop offset="100%" stop-color="#22542F"/>
    </linearGradient>
    <linearGradient id="figelara-hair" x1="0" x2="1" y1="0" y2="0">
      <stop offset="0%" stop-color="#7A1A0E"/>
      <stop offset="50%" stop-color="#C0341D"/>
      <stop offset="100%" stop-color="#7A1A0E"/>
    </linearGradient>
  </defs>
  <ellipse cx="60" cy="192" rx="32" ry="6" fill="url(#fig-shadow-e)"/>
  <path d="M40,170 Q34,130 50,110 L70,110 Q86,130 80,170 Z" fill="url(#figelara-dress)"/>
  <path d="M40,170 Q60,166 80,170 L78,176 Q60,172 42,176 Z" fill="#C8F76A" opacity="0.7"/>
  <path d="M60,114 L60,150" stroke="#C8F76A" stroke-width="0.6" opacity="0.6"/>
  <path d="M48,114 Q60,108 72,114 L70,124 Q60,118 50,124 Z" fill="#3D8A4F" opacity="0.7"/>
  <ellipse cx="60" cy="100" rx="14" ry="6" fill="#F2D2B8"/>
  <rect x="56" y="92" width="8" height="12" fill="#F2D2B8"/>
  <path d="M44,80 Q40,140 50,160 L62,158 Q50,140 50,80 Z" fill="url(#figelara-hair)"/>
  <path d="M76,80 Q80,140 70,160 L58,158 Q70,140 70,80 Z" fill="url(#figelara-hair)"/>
  <ellipse cx="60" cy="78" rx="14" ry="16" fill="#F2D2B8"/>
  <path d="M46,76 Q50,62 60,60 Q70,62 74,76 Q70,68 60,68 Q50,68 46,76 Z" fill="url(#figelara-hair)"/>
  <circle cx="55" cy="80" r="0.9" fill="#2A3A0C"/>
  <circle cx="65" cy="80" r="0.9" fill="#2A3A0C"/>
  <path d="M57,86 Q60,87 63,86" stroke="#9A2A1E" stroke-width="0.7" fill="none" stroke-linecap="round"/>
  <path d="M44,120 Q42,150 46,168" stroke="#22542F" stroke-width="2" fill="none" opacity="0.6"/>
</svg>
