<svg viewBox="0 0 120 200" xmlns="http://www.w3.org/2000/svg" class="ch-figurine">
  <defs>
    <radialGradient id="fig-shadow-v" cx="50%" cy="50%" r="50%">
      <stop offset="0%" stop-color="#000" stop-opacity="0.7"/>
      <stop offset="100%" stop-color="#000" stop-opacity="0"/>
    </radialGradient>
    <linearGradient id="figvex-coat" x1="0" x2="1" y1="0" y2="0">
      <stop offset="0%" stop-color="#341614"/>
      <stop offset="50%" stop-color="#5C2E2A"/>
      <stop offset="100%" stop-color="#341614"/>
    </linearGradient>
  </defs>
  <ellipse cx="60" cy="192" rx="32" ry="6" fill="url(#fig-shadow-v)"/>
  <path d="M42,170 Q40,120 50,98 L70,98 Q80,120 78,170 Z" fill="url(#figvex-coat)"/>
  <path d="M50,98 L60,140 L70,98 L66,98 L60,128 L54,98 Z" fill="#341614"/>
  <rect x="44" y="140" width="32" height="3" fill="#0A0710"/>
  <rect x="58" y="139" width="4" height="5" fill="#C8F76A"/>
  <ellipse cx="60" cy="96" rx="11" ry="4" fill="#5C2E2A"/>
  <rect x="57" y="86" width="6" height="12" fill="#E8C5A3"/>
  <ellipse cx="60" cy="74" rx="11" ry="12" fill="#E8C5A3"/>
  <path d="M50,72 Q60,68 70,72 L70,80 Q60,82 50,80 Z" fill="#0F0B18"/>
  <circle cx="56" cy="76" r="0.9" fill="#C8F76A"/>
  <circle cx="64" cy="76" r="0.9" fill="#C8F76A"/>
  <path d="M38,68 Q44,52 60,50 Q76,52 82,68 Q70,62 60,62 Q50,62 38,68 Z" fill="#15101F"/>
  <path d="M38,68 L42,58 L48,68 Z" fill="#0A0710"/>
  <path d="M82,68 L78,58 L72,68 Z" fill="#0A0710"/>
  <path d="M60,50 L57,57 L63,57 Z" fill="#0A0710"/>
  <path d="M74,58 Q82,46 86,46" stroke="#C8F76A" stroke-width="1" fill="none" stroke-linecap="round"/>
</svg>
