<svg viewBox="0 0 240 300" xmlns="http://www.w3.org/2000/svg" class="ch-portrait">
  <defs>
    <radialGradient id="sl-bg" cx="30%" cy="35%" r="80%">
      <stop offset="0%" stop-color="#d7b06a" stop-opacity="0.18"/>
      <stop offset="100%" stop-color="#0b111c" stop-opacity="0"/>
    </radialGradient>
    <linearGradient id="sl-brass" x1="0" x2="1" y1="0" y2="1">
      <stop offset="0%" stop-color="#f0d28c"/>
      <stop offset="100%" stop-color="#8a6a2a"/>
    </linearGradient>
  </defs>
  <rect width="240" height="300" fill="#17202e"/>
  <rect width="240" height="300" fill="url(#sl-bg)"/>
  <line x1="60" y1="0" x2="60" y2="300" stroke="rgba(255,255,255,0.12)" stroke-width="0.6"/>
  <line x1="120" y1="0" x2="120" y2="300" stroke="rgba(255,255,255,0.12)" stroke-width="0.6"/>
  <line x1="180" y1="0" x2="180" y2="300" stroke="rgba(255,255,255,0.12)" stroke-width="0.6"/>
  <line x1="0" y1="75" x2="240" y2="75" stroke="rgba(255,255,255,0.12)" stroke-width="0.6"/>
  <line x1="0" y1="150" x2="240" y2="150" stroke="rgba(255,255,255,0.12)" stroke-width="0.6"/>
  <line x1="0" y1="225" x2="240" y2="225" stroke="rgba(255,255,255,0.12)" stroke-width="0.6"/>
  <g stroke="url(#sl-brass)" stroke-width="9" stroke-linecap="round" fill="none">
    <path d="M60,90 L180,210"/>
    <path d="M180,90 L60,210"/>
  </g>
  <circle cx="120" cy="150" r="14" fill="#17202e" stroke="#f0d28c" stroke-width="2.5"/>
  <circle cx="120" cy="150" r="5" fill="#f0d28c"/>
  <circle cx="60" cy="90" r="5" fill="#f0d28c"/>
  <circle cx="180" cy="90" r="5" fill="#f0d28c"/>
  <circle cx="60" cy="210" r="3" fill="#a8c9b0" opacity="0.7"/>
  <circle cx="180" cy="210" r="3" fill="#a8c9b0" opacity="0.7"/>
  <text x="20" y="280" font-family='"Geist Mono", monospace' font-size="9" letter-spacing="2" fill="#a8c9b0" opacity="0.7">SPARRING · 90 MIN.</text>
</svg>
