<svg xmlns="http://www.w3.org/2000/svg" viewBox="0 0 1280 820" width="1280" height="820" font-family="JetBrains Mono, ui-monospace, monospace">
  <defs>
    <linearGradient id="ink" x1="0" y1="0" x2="1" y2="1">
      <stop offset="0%" stop-color="#1A1326"></stop>
      <stop offset="100%" stop-color="#120D1C"></stop>
    </linearGradient>
    <radialGradient id="glowTR" cx="92%" cy="2%" r="55%">
      <stop offset="0%" stop-color="#C8F76A" stop-opacity="0.14"></stop>
      <stop offset="60%" stop-color="#C8F76A" stop-opacity="0.03"></stop>
      <stop offset="100%" stop-color="#C8F76A" stop-opacity="0"></stop>
    </radialGradient>
    <radialGradient id="glowBL" cx="8%" cy="98%" r="45%">
      <stop offset="0%" stop-color="#5BD4D0" stop-opacity="0.10"></stop>
      <stop offset="100%" stop-color="#5BD4D0" stop-opacity="0"></stop>
    </radialGradient>
    <radialGradient id="hubGlow" cx="50%" cy="50%" r="50%">
      <stop offset="0%" stop-color="#C8F76A" stop-opacity="0.30"></stop>
      <stop offset="100%" stop-color="#C8F76A" stop-opacity="0"></stop>
    </radialGradient>

    
    <marker id="x" viewBox="0 0 10 10" refX="5" refY="5" markerWidth="6" markerHeight="6">
      <path d="M1,1 L9,9 M9,1 L1,9" stroke="#E26B6B" stroke-width="1.5" fill="none" stroke-linecap="round"></path>
    </marker>

    
    <symbol id="hcp" overflow="visible">
      <rect x="0" y="0" width="270" height="116" rx="12" ry="12" fill="#1A1326" stroke="rgba(200,247,106,0.28)" stroke-width="1"></rect>
      <rect x="0" y="0" width="270" height="1" fill="#C8F76A" opacity="0.55"></rect>
    </symbol>
    <symbol id="hub" overflow="visible">
      <rect x="0" y="0" width="270" height="116" rx="12" ry="12" fill="#1A1326" stroke="#C8F76A" stroke-width="1"></rect>
      <rect x="0" y="0" width="270" height="2" fill="#C8F76A"></rect>
    </symbol>
    <symbol id="hw" overflow="visible">
      <rect x="0" y="0" width="220" height="100" rx="12" ry="12" fill="#1A1326" stroke="rgba(255,255,255,0.10)" stroke-width="1"></rect>
    </symbol>
  </defs>

  
  <rect width="1280" height="820" fill="url(#ink)"></rect>
  <rect width="1280" height="820" fill="url(#glowTR)"></rect>
  <rect width="1280" height="820" fill="url(#glowBL)"></rect>

  
  <text x="60" y="56" font-size="11" letter-spacing="3.6" fill="#C8F76A">[ TOPOLOGY — UNIFIED 2026-05-05 ]</text>
  <text x="60" y="100" font-family="Instrument Serif, Georgia, serif" font-size="36" fill="#ECEFF3" letter-spacing="-0.3">
    one k3s cluster<tspan fill="#69707B">,</tspan> <tspan font-style="italic" fill="#D8FF8A">two physical sites.</tspan>
  </text>

  
  <line x1="60" y1="125" x2="1220" y2="125" stroke="rgba(255,255,255,0.10)" stroke-width="1"></line>
  <g font-size="10" letter-spacing="1.6" fill="#8A93A0">
    <text x="60" y="146">VERSION  <tspan fill="#ECEFF3">v1.34.6+k3s1</tspan></text>
    <text x="240" y="146">CNI  <tspan fill="#ECEFF3">FLANNEL · VXLAN</tspan></text>
    <text x="430" y="146">CONTROL-PLANE  <tspan fill="#ECEFF3">6 / 6  ETCD HA</tspan></text>
    <text x="660" y="146">WORKERS  <tspan fill="#ECEFF3">6 / 6</tspan></text>
    <text x="820" y="146">CONTEXT  <tspan fill="#ECEFF3">MENTOLDER</tspan></text>
    <text x="1010" y="146">INGRESS  <tspan fill="#ECEFF3">TRAEFIK · DS</tspan></text>
  </g>

  
  <g transform="translate(60,180)">
    <text x="0" y="0" font-size="10" letter-spacing="2.2" fill="#8A93A0">SITE A  ·  HETZNER HELSINKI  ·  PUBLIC IPv4  ·  <tspan fill="#5BD4D0">node-location=hetzner</tspan></text>
    <line x1="0" y1="12" x2="1160" y2="12" stroke="rgba(255,255,255,0.07)" stroke-width="1"></line>
    <text x="1160" y="0" text-anchor="end" font-size="10" letter-spacing="1.6" fill="#69707B">CONTROL-PLANE × 6  ·  ETCD STACKED</text>
  </g>

  
  
  <g transform="translate(75,210)">
    <use href="#hcp"></use>
    <text x="14" y="22" font-size="10" letter-spacing="1.6" fill="#C8F76A">GEKKO-HETZNER-2</text>
    <text x="256" y="22" text-anchor="end" font-size="9" fill="#69707B">UBUNTU 24.04 · AMD64</text>
    <text x="14" y="42" font-size="10" fill="#C6CCD4">178.104.169.206</text>
    <line x1="14" y1="52" x2="256" y2="52" stroke="rgba(255,255,255,0.07)"></line>
    <text x="14" y="68" font-size="9" letter-spacing="1.4" fill="#8A93A0">ARGOCD HUB</text>
    <text x="14" y="84" font-size="9" letter-spacing="1.4" fill="#8A93A0">SEALED-SECRETS</text>
    <g transform="translate(14,94)">
      <circle cx="0" cy="6" r="3" fill="#5BD4D0"></circle>
      <circle cx="11" cy="6" r="3" fill="#5BD4D0"></circle>
      <circle cx="22" cy="6" r="3" fill="#5BD4D0"></circle>
      <circle cx="33" cy="6" r="3" fill="#5BD4D0"></circle>
      <circle cx="44" cy="6" r="3" fill="#5BD4D0"></circle>
      <circle cx="55" cy="6" r="3" fill="#5BD4D0"></circle>
      <circle cx="66" cy="6" r="3" fill="#5BD4D0"></circle>
      <circle cx="77" cy="6" r="3" fill="#5BD4D0"></circle>
      <circle cx="88" cy="6" r="3" fill="#C8F76A"></circle>
    </g>
    <text x="256" y="106" text-anchor="end" font-size="9" fill="#5BD4D0">ETCD · LEADER</text>
  </g>

  <g transform="translate(360,210)">
    <use href="#hcp"></use>
    <text x="14" y="22" font-size="10" letter-spacing="1.6" fill="#C8F76A">GEKKO-HETZNER-3</text>
    <text x="256" y="22" text-anchor="end" font-size="9" fill="#69707B">UBUNTU 24.04 · AMD64</text>
    <text x="14" y="42" font-size="10" fill="#C6CCD4">46.225.125.59</text>
    <line x1="14" y1="52" x2="256" y2="52" stroke="rgba(255,255,255,0.07)"></line>
    <text x="14" y="68" font-size="9" letter-spacing="1.4" fill="#C8F76A">LIVEKIT · MENTOLDER</text>
    <text x="14" y="84" font-size="9" letter-spacing="1.4" fill="#8A93A0">HOSTNETWORK · DNS PINNED</text>
    <g transform="translate(14,94)">
      <circle cx="0" cy="6" r="3" fill="#5BD4D0"></circle>
      <circle cx="11" cy="6" r="3" fill="#5BD4D0"></circle>
      <circle cx="22" cy="6" r="3" fill="#5BD4D0"></circle>
      <circle cx="33" cy="6" r="3" fill="#5BD4D0"></circle>
      <circle cx="44" cy="6" r="3" fill="#5BD4D0"></circle>
      <circle cx="55" cy="6" r="3" fill="#5BD4D0"></circle>
    </g>
    <text x="256" y="106" text-anchor="end" font-size="9" fill="#8A93A0">ETCD · FOLLOWER</text>
  </g>

  <g transform="translate(645,210)">
    <use href="#hcp"></use>
    <text x="14" y="22" font-size="10" letter-spacing="1.6" fill="#C8F76A">GEKKO-HETZNER-4</text>
    <text x="256" y="22" text-anchor="end" font-size="9" fill="#69707B">UBUNTU 24.04 · AMD64</text>
    <text x="14" y="42" font-size="10" fill="#C6CCD4">178.104.159.79</text>
    <line x1="14" y1="52" x2="256" y2="52" stroke="rgba(255,255,255,0.07)"></line>
    <text x="14" y="68" font-size="9" letter-spacing="1.4" fill="#C8F76A">LIVEKIT · KORCZEWSKI</text>
    <text x="14" y="84" font-size="9" letter-spacing="1.4" fill="#8A93A0">SERVER + INGRESS + EGRESS</text>
    <g transform="translate(14,94)">
      <circle cx="0" cy="6" r="3" fill="#5BD4D0"></circle>
      <circle cx="11" cy="6" r="3" fill="#5BD4D0"></circle>
      <circle cx="22" cy="6" r="3" fill="#5BD4D0"></circle>
      <circle cx="33" cy="6" r="3" fill="#5BD4D0"></circle>
      <circle cx="44" cy="6" r="3" fill="#5BD4D0"></circle>
      <circle cx="55" cy="6" r="3" fill="#5BD4D0"></circle>
      <circle cx="66" cy="6" r="3" fill="#5BD4D0"></circle>
    </g>
    <text x="256" y="106" text-anchor="end" font-size="9" fill="#8A93A0">ETCD · FOLLOWER</text>
  </g>

  
  <g transform="translate(930,210)">
    <ellipse cx="135" cy="58" rx="180" ry="84" fill="url(#hubGlow)"></ellipse>
    <use href="#hub"></use>
    <text x="14" y="22" font-size="10" letter-spacing="1.6" fill="#C8F76A">PK-HETZNER</text>
    <text x="256" y="22" text-anchor="end" font-size="9" fill="#69707B">UBUNTU 22.04 · AMD64</text>
    <text x="14" y="42" font-size="10" fill="#C6CCD4">62.238.9.39</text>
    <line x1="14" y1="52" x2="256" y2="52" stroke="rgba(200,247,106,0.20)"></line>
    <text x="14" y="68" font-size="9" letter-spacing="1.4" fill="#C8F76A">WG HUB · wg0 192.168.100.1</text>
    <text x="14" y="84" font-size="9" letter-spacing="1.4" fill="#8A93A0">LEGACY API · :6443</text>
    <g transform="translate(14,94)">
      <circle cx="0" cy="6" r="3" fill="#5BD4D0"></circle>
      <circle cx="11" cy="6" r="3" fill="#5BD4D0"></circle>
      <circle cx="22" cy="6" r="3" fill="#5BD4D0"></circle>
      <circle cx="33" cy="6" r="3" fill="#5BD4D0"></circle>
      <circle cx="44" cy="6" r="3" fill="#5BD4D0"></circle>
    </g>
    <text x="256" y="106" text-anchor="end" font-size="9" fill="#C8F76A">ETCD · FOLLOWER  ◆ HUB</text>
  </g>

  
  <g transform="translate(75,345)">
    <use href="#hcp"></use>
    <text x="14" y="22" font-size="10" letter-spacing="1.6" fill="#C8F76A">PK-HETZNER-2</text>
    <text x="256" y="22" text-anchor="end" font-size="9" fill="#69707B">UBUNTU 24.04 · AMD64</text>
    <text x="14" y="42" font-size="10" fill="#C6CCD4">77.42.33.194</text>
    <line x1="14" y1="52" x2="256" y2="52" stroke="rgba(255,255,255,0.07)"></line>
    <text x="14" y="68" font-size="9" letter-spacing="1.4" fill="#C8F76A">COREDNS</text>
    <text x="14" y="84" font-size="9" letter-spacing="1.4" fill="#8A93A0">ARGOCD-REPO-SERVER</text>
    <g transform="translate(14,94)">
      <circle cx="0" cy="6" r="3" fill="#5BD4D0"></circle>
      <circle cx="11" cy="6" r="3" fill="#5BD4D0"></circle>
      <circle cx="22" cy="6" r="3" fill="#5BD4D0"></circle>
      <circle cx="33" cy="6" r="3" fill="#5BD4D0"></circle>
      <circle cx="44" cy="6" r="3" fill="#5BD4D0"></circle>
      <circle cx="55" cy="6" r="3" fill="#5BD4D0"></circle>
      <circle cx="66" cy="6" r="3" fill="#5BD4D0"></circle>
    </g>
    <text x="256" y="106" text-anchor="end" font-size="9" fill="#8A93A0">ETCD · FOLLOWER</text>
  </g>

  <g transform="translate(360,345)">
    <use href="#hcp"></use>
    <text x="14" y="22" font-size="10" letter-spacing="1.6" fill="#C8F76A">PK-HETZNER-3</text>
    <text x="256" y="22" text-anchor="end" font-size="9" fill="#69707B">UBUNTU 24.04 · AMD64</text>
    <text x="14" y="42" font-size="10" fill="#C6CCD4">62.238.23.79</text>
    <line x1="14" y1="52" x2="256" y2="52" stroke="rgba(255,255,255,0.07)"></line>
    <text x="14" y="68" font-size="9" letter-spacing="1.4" fill="#C8F76A">OAUTH2-PROXY</text>
    <text x="14" y="84" font-size="9" letter-spacing="1.4" fill="#8A93A0">TALK-TRANSCRIBER</text>
    <g transform="translate(14,94)">
      <circle cx="0" cy="6" r="3" fill="#5BD4D0"></circle>
      <circle cx="11" cy="6" r="3" fill="#5BD4D0"></circle>
      <circle cx="22" cy="6" r="3" fill="#5BD4D0"></circle>
      <circle cx="33" cy="6" r="3" fill="#5BD4D0"></circle>
      <circle cx="44" cy="6" r="3" fill="#5BD4D0"></circle>
      <circle cx="55" cy="6" r="3" fill="#5BD4D0"></circle>
      <circle cx="66" cy="6" r="3" fill="#5BD4D0"></circle>
      <circle cx="77" cy="6" r="3" fill="#5BD4D0"></circle>
    </g>
    <text x="256" y="106" text-anchor="end" font-size="9" fill="#8A93A0">ETCD · FOLLOWER</text>
  </g>

  
  <g stroke="#C8F76A" stroke-opacity="0.20" stroke-width="1" stroke-dasharray="2 3" fill="none">
    
    <line x1="345" y1="268" x2="360" y2="268"></line>
    <line x1="630" y1="268" x2="645" y2="268"></line>
    <line x1="915" y1="268" x2="930" y2="268"></line>
    
    <line x1="210" y1="326" x2="210" y2="345"></line>
    <line x1="495" y1="326" x2="495" y2="345"></line>
    
    <path d="M 780 326 Q 700 340 645 372"></path>
    <path d="M 1065 326 Q 800 380 645 372"></path>
  </g>

  
  <g transform="translate(0,478)">
    <line x1="60" y1="0" x2="1220" y2="0" stroke="rgba(226,107,107,0.25)" stroke-width="1" stroke-dasharray="6 4"></line>
    <rect x="490" y="-13" width="300" height="26" rx="13" fill="#1A1326" stroke="rgba(226,107,107,0.40)"></rect>
    <text x="640" y="4" text-anchor="middle" font-size="10" letter-spacing="2.0" fill="#E26B6B">FLANNEL VXLAN PARTITION</text>
    
    <text x="60" y="-8" font-size="9" letter-spacing="1.6" fill="#5BD4D0">↑ HETZNER PODS ↔ HETZNER PODS  ROUTABLE</text>
    <text x="1220" y="-8" text-anchor="end" font-size="9" letter-spacing="1.6" fill="#5BD4D0">HETZNER ↔ HOME  BROKEN ✕  ↓ HOME ↔ HOME  ROUTABLE</text>
  </g>

  
  <g transform="translate(60,510)">
    <text x="0" y="0" font-size="10" letter-spacing="2.2" fill="#8A93A0">SITE B  ·  HOME LAN  ·  WIREGUARD SPOKES  ·  <tspan fill="#69707B">no node-location label · cold spare</tspan></text>
    <line x1="0" y1="12" x2="1160" y2="12" stroke="rgba(255,255,255,0.07)" stroke-width="1"></line>
    <text x="1160" y="0" text-anchor="end" font-size="10" letter-spacing="1.6" fill="#69707B">WORKERS × 6  ·  3× MINI-PC  +  3× RPI</text>
  </g>

  
  
  <g transform="translate(75,540)">
    <use href="#hw"></use>
    <text x="14" y="22" font-size="10" letter-spacing="1.6" fill="#C8F76A">K3S-1</text>
    <text x="206" y="22" text-anchor="end" font-size="9" fill="#69707B">x86 · MINI-PC</text>
    <text x="14" y="42" font-size="10" fill="#C6CCD4">192.168.100.20</text>
    <text x="14" y="58" font-size="9" fill="#8A93A0">UBUNTU 24.04 · AMD64</text>
    <line x1="14" y1="68" x2="206" y2="68" stroke="rgba(255,255,255,0.07)"></line>
    <text x="14" y="84" font-size="9" letter-spacing="1.4" fill="#C8F76A">COLLABORA</text>
    <g transform="translate(14,90)">
      <circle cx="0" cy="6" r="3" fill="#5BD4D0"></circle>
    </g>
    <text x="206" y="96" text-anchor="end" font-size="9" fill="#5BD4D0">1 POD</text>
  </g>

  <g transform="translate(305,540)">
    <use href="#hw"></use>
    <text x="14" y="22" font-size="10" letter-spacing="1.6" fill="#69707B">K3S-2</text>
    <text x="206" y="22" text-anchor="end" font-size="9" fill="#69707B">x86 · MINI-PC</text>
    <text x="14" y="42" font-size="10" fill="#8A93A0">192.168.100.3</text>
    <text x="14" y="58" font-size="9" fill="#69707B">UBUNTU 24.04 · AMD64</text>
    <line x1="14" y1="68" x2="206" y2="68" stroke="rgba(255,255,255,0.07)"></line>
    <text x="14" y="84" font-size="9" letter-spacing="1.4" fill="#69707B">IDLE</text>
    <g transform="translate(14,90)">
      <circle cx="0" cy="6" r="3" fill="#3A2E52"></circle>
    </g>
    <text x="206" y="96" text-anchor="end" font-size="9" fill="#69707B">0 PODS</text>
  </g>

  <g transform="translate(535,540)">
    <use href="#hw"></use>
    <text x="14" y="22" font-size="10" letter-spacing="1.6" fill="#69707B">K3S-3</text>
    <text x="206" y="22" text-anchor="end" font-size="9" fill="#69707B">x86 · MINI-PC</text>
    <text x="14" y="42" font-size="10" fill="#8A93A0">192.168.100.4</text>
    <text x="14" y="58" font-size="9" fill="#69707B">UBUNTU 24.04 · AMD64</text>
    <line x1="14" y1="68" x2="206" y2="68" stroke="rgba(255,255,255,0.07)"></line>
    <text x="14" y="84" font-size="9" letter-spacing="1.4" fill="#69707B">IDLE</text>
    <g transform="translate(14,90)">
      <circle cx="0" cy="6" r="3" fill="#3A2E52"></circle>
    </g>
    <text x="206" y="96" text-anchor="end" font-size="9" fill="#69707B">0 PODS</text>
  </g>

  <g transform="translate(765,540)">
    <use href="#hw"></use>
    <text x="14" y="22" font-size="10" letter-spacing="1.6" fill="#69707B">K3W-1</text>
    <text x="206" y="22" text-anchor="end" font-size="9" fill="#69707B">arm64 · RPi 5</text>
    <text x="14" y="42" font-size="10" fill="#8A93A0">192.168.100.11</text>
    <text x="14" y="58" font-size="9" fill="#69707B">DEBIAN 13 · rpt-rpi-2712</text>
    <line x1="14" y1="68" x2="206" y2="68" stroke="rgba(255,255,255,0.07)"></line>
    <text x="14" y="84" font-size="9" letter-spacing="1.4" fill="#69707B">IDLE</text>
    <g transform="translate(14,90)">
      <circle cx="0" cy="6" r="3" fill="#3A2E52"></circle>
    </g>
    <text x="206" y="96" text-anchor="end" font-size="9" fill="#69707B">0 PODS</text>
  </g>

  <g transform="translate(995,540)">
    <use href="#hw"></use>
    <text x="14" y="22" font-size="10" letter-spacing="1.6" fill="#69707B">K3W-2</text>
    <text x="206" y="22" text-anchor="end" font-size="9" fill="#69707B">arm64 · RPi 5</text>
    <text x="14" y="42" font-size="10" fill="#8A93A0">192.168.100.12</text>
    <text x="14" y="58" font-size="9" fill="#69707B">DEBIAN 13</text>
    <line x1="14" y1="68" x2="206" y2="68" stroke="rgba(255,255,255,0.07)"></line>
    <text x="14" y="84" font-size="9" letter-spacing="1.4" fill="#69707B">IDLE</text>
    <g transform="translate(14,90)">
      <circle cx="0" cy="6" r="3" fill="#3A2E52"></circle>
    </g>
    <text x="206" y="96" text-anchor="end" font-size="9" fill="#69707B">0 PODS</text>
  </g>

  <g transform="translate(75,665)">
    <use href="#hw"></use>
    <text x="14" y="22" font-size="10" letter-spacing="1.6" fill="#69707B">K3W-3</text>
    <text x="206" y="22" text-anchor="end" font-size="9" fill="#69707B">arm64 · RPi 4</text>
    <text x="14" y="42" font-size="10" fill="#8A93A0">192.168.100.13</text>
    <text x="14" y="58" font-size="9" fill="#69707B">DEBIAN 13 · rpt-rpi-v8</text>
    <line x1="14" y1="68" x2="206" y2="68" stroke="rgba(255,255,255,0.07)"></line>
    <text x="14" y="84" font-size="9" letter-spacing="1.4" fill="#69707B">IDLE</text>
    <g transform="translate(14,90)">
      <circle cx="0" cy="6" r="3" fill="#3A2E52"></circle>
    </g>
    <text x="206" y="96" text-anchor="end" font-size="9" fill="#69707B">0 PODS</text>
  </g>

  
  <g stroke="#C8F76A" stroke-opacity="0.45" stroke-width="1" stroke-dasharray="3 3" fill="none">
    
    <path d="M 1065 326 C 900 420, 600 470, 185 540" stroke-opacity="0.55"></path>
    
    <path d="M 1065 326 C 950 410, 700 470, 415 540" stroke-opacity="0.30"></path>
    
    <path d="M 1065 326 C 1000 410, 800 470, 645 540" stroke-opacity="0.30"></path>
    
    <path d="M 1065 326 C 1050 410, 1000 470, 875 540" stroke-opacity="0.30"></path>
    
    <path d="M 1065 326 C 1090 410, 1110 470, 1105 540" stroke-opacity="0.30"></path>
    
    <path d="M 1065 326 C 700 460, 200 600, 185 665" stroke-opacity="0.30"></path>
  </g>

  
  <g stroke="#E26B6B" stroke-width="1.2" stroke-linecap="round">
    <line x1="640" y1="471" x2="648" y2="479"></line><line x1="648" y1="471" x2="640" y2="479"></line>
  </g>

  
  <g transform="translate(60,790)" font-size="9" letter-spacing="1.6" fill="#8A93A0">
    <circle cx="4" cy="-3" r="3" fill="#5BD4D0"></circle><text x="14" y="0">POD READY</text>
    <circle cx="104" cy="-3" r="3" fill="#C8F76A"></circle><text x="114" y="0">SYSTEM POD</text>
    <circle cx="220" cy="-3" r="3" fill="#E26B6B"></circle><text x="230" y="0">FAILED</text>
    <circle cx="300" cy="-3" r="3" fill="#3A2E52"></circle><text x="310" y="0">IDLE</text>

    <line x1="380" y1="-3" x2="404" y2="-3" stroke="#C8F76A" stroke-opacity="0.45" stroke-dasharray="3 3"></line>
    <text x="412" y="0">WIREGUARD wg0</text>

    <line x1="540" y1="-3" x2="564" y2="-3" stroke="#C8F76A" stroke-opacity="0.30" stroke-dasharray="2 3"></line>
    <text x="572" y="0">ETCD QUORUM</text>

    <line x1="690" y1="-3" x2="714" y2="-3" stroke="rgba(226,107,107,0.55)" stroke-dasharray="6 4"></line>
    <text x="722" y="0">VXLAN PARTITION</text>

    <text x="1220" y="0" text-anchor="end" fill="#69707B">SOURCE  ·  KUBECTL --CONTEXT MENTOLDER  ·  2026-05-05</text>
  </g>
</svg>