<svg xmlns="http://www.w3.org/2000/svg" viewBox="0 0 120 200" width="120" height="200">
  
  <ellipse cx="60" cy="196" rx="22" ry="5" fill="rgba(0,0,0,.4)"></ellipse>
  <path d="M30,88 Q18,132 22,190 Q26,197 38,195 Q44,162 52,132 Q56,112 60,96" fill="#192840"></path>
  <path d="M90,88 Q102,132 98,190 Q94,197 82,195 Q76,162 68,132 Q64,112 60,96" fill="#192840"></path>
  <path d="M40,82 L38,138 L82,138 L80,82 Z" fill="#1E3A6E"></path>
  <path d="M44,85 L44,130 Q60,136 76,130 L76,85 Z" fill="#2952A0"></path>
  <path d="M52,90 L52,128" stroke="#3D72D0" stroke-width="1" fill="none"></path>
  <path d="M68,90 L68,128" stroke="#3D72D0" stroke-width="1" fill="none"></path>
  <path d="M44,110 L76,110" stroke="#3D72D0" stroke-width="1" fill="none"></path>
  <circle cx="60" cy="108" r="7" fill="#1A3060" stroke="#C8F76A" stroke-width="1"></circle>
  <line x1="56.5" y1="103" x2="56.5" y2="113" stroke="#C8F76A" stroke-width="1.5"></line>
  <line x1="57" y1="108" x2="63" y2="104" stroke="#C8F76A" stroke-width="1.5"></line>
  <line x1="57" y1="108" x2="63" y2="112" stroke="#C8F76A" stroke-width="1.5"></line>
  <rect x="38" y="133" width="44" height="8" rx="2" fill="#0F1E3A"></rect>
  <ellipse cx="38" cy="86" rx="12" ry="7" fill="#1E3A6E" transform="rotate(-15,38,86)"></ellipse>
  <ellipse cx="82" cy="86" rx="12" ry="7" fill="#1E3A6E" transform="rotate(15,82,86)"></ellipse>
  <rect x="54" y="69" width="12" height="15" rx="4" fill="#C8A87A"></rect>
  <path d="M36,56 Q36,22 60,20 Q84,22 84,56 L80,68 L40,68 Z" fill="#1E3A6E"></path>
  <path d="M42,52 Q42,58 60,59 Q78,58 78,52 L76,46 Q70,44 60,44 Q50,44 44,46 Z" fill="#0A1628"></path>
  <path d="M42,52 Q42,58 60,59 Q78,58 78,52 L76,46 Q70,44 60,44 Q50,44 44,46 Z" fill="#1C5F9E" fill-opacity=".4"></path>
  <path d="M46,50 Q60,52 74,50" stroke="#5BD4D0" stroke-width="1.5" fill="none" stroke-opacity=".8"></path>
  <path d="M60,20 L60,10 Q56,14 56,18" fill="#C8F76A"></path>
  <path d="M60,20 L60,10 Q64,14 64,18" fill="#8FBE2E"></path>
  <path d="M36,45 Q28,40 30,52 Q32,58 40,58" fill="#1E3A6E"></path>
  <path d="M84,45 Q92,40 90,52 Q88,58 80,58" fill="#1E3A6E"></path>
  <path d="M38,88 Q24,105 22,128 Q24,135 32,132 Q36,115 44,100" fill="#1E3A6E"></path>
  <path d="M82,88 Q96,105 98,125 Q96,132 88,130 Q84,113 76,100" fill="#1E3A6E"></path>
  <ellipse cx="24" cy="134" rx="8" ry="6" fill="#0F1E3A"></ellipse>
  <ellipse cx="96" cy="128" rx="8" ry="6" fill="#0F1E3A"></ellipse>
</svg>