<svg xmlns="http://www.w3.org/2000/svg" width="900" height="420" viewBox="0 0 900 420" font-family="DejaVu Sans, sans-serif">
  <rect width="900" height="420" fill="#fbfbfc"/>
  <text x="18" y="28" fill="#1f2933" font-size="18" font-weight="bold">fleet — context: fleet · namespace: workspace · brand: mentolder</text>
  <rect x="18" y="46" width="864" height="150" rx="8" fill="#ffffff" stroke="#c7cfd8"/>
  <text x="34" y="70" fill="#5a6b7d" font-size="13">control-plane</text>
  <rect x="34" y="82" width="240" height="52" rx="6" fill="#eef4ff" stroke="#9db8e8"/>
  <text x="46" y="112" fill="#16202b" font-size="14">pk-hetzner-4</text>
  <rect x="300" y="82" width="240" height="52" rx="6" fill="#eef4ff" stroke="#9db8e8"/>
  <text x="312" y="112" fill="#16202b" font-size="14">pk-hetzner-6</text>
  <rect x="566" y="82" width="240" height="52" rx="6" fill="#eef4ff" stroke="#9db8e8"/>
  <text x="578" y="112" fill="#16202b" font-size="14">pk-hetzner-8</text>
  <text x="34" y="166" fill="#5a6b7d" font-size="12">3 control-plane nodes · aktiver Kontext: fleet</text>

  <rect x="18" y="214" width="864" height="150" rx="8" fill="#ffffff" stroke="#c7cfd8"/>
  <text x="34" y="238" fill="#5a6b7d" font-size="13">worker-pool</text>
  <rect x="34" y="250" width="240" height="52" rx="6" fill="#f2fbf4" stroke="#8fc9a2"/>
  <text x="46" y="280" fill="#16202b" font-size="14">gekko-hetzner-10</text>
  <rect x="300" y="250" width="240" height="52" rx="6" fill="#f2fbf4" stroke="#8fc9a2"/>
  <text x="312" y="280" fill="#16202b" font-size="14">gekko-hetzner-11</text>
  <line x1="154" y1="196" x2="154" y2="250" stroke="#9db8e8" stroke-width="2"/>
  <line x1="420" y1="196" x2="420" y2="250" stroke="#9db8e8" stroke-width="2"/>
  <line x1="686" y1="196" x2="686" y2="250" stroke="#9db8e8" stroke-width="2"/>
  <text x="34" y="336" fill="#5a6b7d" font-size="12">namespace: workspace · brand: mentolder</text>
  <text x="700" y="336" fill="#9aa7b4" font-size="12">eingefrorene Marke nicht dargestellt</text>
</svg>
