<svg xmlns="http://www.w3.org/2000/svg" viewBox="0 0 64 64" width="64" height="64" fill="none" stroke="currentColor" stroke-width="1.4" stroke-linecap="round" stroke-linejoin="round" shape-rendering="geometricPrecision">
  
  
  <path d="M32 8 C24 18, 18 22, 18 34 C18 44, 25 52, 32 54 C39 52, 46 44, 46 34 C46 22, 40 18, 32 8 Z"></path>
  
  <path d="M32 18 C28 24, 24 28, 24 36 C24 42, 28 48, 32 49 C36 48, 40 42, 40 36 C40 28, 36 24, 32 18 Z" opacity=".7"></path>
  
  <circle cx="32" cy="38" r="5"></circle>
  <circle cx="32" cy="38" r="1.6" fill="currentColor" stroke="none"></circle>
  
  <circle cx="20" cy="20" r=".7" fill="currentColor" stroke="none" opacity=".7"></circle>
  <circle cx="44" cy="22" r=".55" fill="currentColor" stroke="none" opacity=".55"></circle>
  <circle cx="48" cy="32" r=".7" fill="currentColor" stroke="none" opacity=".55"></circle>
  <circle cx="16" cy="32" r=".55" fill="currentColor" stroke="none" opacity=".55"></circle>
  
  <path d="M6 10 H10 V14" opacity=".35"></path>
  <path d="M58 54 H54 V50" opacity=".35"></path>
</svg>