<svg xmlns="http://www.w3.org/2000/svg" viewBox="0 0 64 64" width="64" height="64" fill="none" stroke="currentColor" stroke-width="1.4" stroke-linecap="round" stroke-linejoin="round" shape-rendering="geometricPrecision">
  
  
  <path d="M10 24 H46 a3 3 0 0 1 3 3 V32 H10 Z"></path>
  
  <path d="M14 26.5 H18 M22 26.5 H26 M30 26.5 H34" opacity=".55"></path>
  
  <path d="M49 27 H53 V31 H49"></path>
  
  <path d="M14 32 V36 a2 2 0 0 0 2 2 H28 l-2 4 H22"></path>
  
  <path d="M22 35.5 q1.2 2 2.6 2.4"></path>
  
  <path d="M22 32 L18 50 H26 L29 32"></path>
  
  <path d="M45 24 V21 h2 v3"></path>
  
  <circle cx="44" cy="25.3" r=".55" fill="currentColor" stroke="none"></circle>
  
  <path d="M6 10 H10 V14" opacity=".35"></path>
  <path d="M58 54 H54 V50" opacity=".35"></path>
</svg>