<svg xmlns="http://www.w3.org/2000/svg" viewBox="0 0 64 64" width="64" height="64" fill="none" stroke="currentColor" stroke-width="1.4" stroke-linecap="round" stroke-linejoin="round" shape-rendering="geometricPrecision">
  
  
  <path d="M6 28 H42 V34 H14 a3 3 0 0 1 -3 -3 V28"></path>
  
  <path d="M8 30.5 H6 M10 30.5 H8.5" opacity=".55"></path>
  
  <path d="M16 28 V24 h2 v4"></path>
  
  <path d="M26 28 V22 h10 v6"></path>
  <path d="M28 22 V18 h6 v4" opacity=".7"></path>
  
  <path d="M22 34 L20 44 H30 L28 34"></path>
  <path d="M22 38 H28" opacity=".5"></path>
  
  <path d="M34 34 L36 44 H42 V34"></path>
  
  <path d="M42 28 L54 26 V36 L42 34"></path>
  
  <path d="M50 28 V34" opacity=".45"></path>
  
  <path d="M6 10 H10 V14" opacity=".35"></path>
  <path d="M58 54 H54 V50" opacity=".35"></path>
</svg>