<svg xmlns="http://www.w3.org/2000/svg" viewBox="0 0 200 200" width="200" height="200" role="img" aria-label="Pipeline">
  <defs>
    <radialGradient id="pgk" cx="50%" cy="45%" r="65%"><stop offset="0%" stop-color="#1c1428"></stop><stop offset="100%" stop-color="#120D1C"></stop></radialGradient>
    <filter id="pgrainK"><feTurbulence type="fractalNoise" baseFrequency="1.0" numOctaves="2" seed="9"></feTurbulence><feColorMatrix values="0 0 0 0 0 0 0 0 0 0 0 0 0 0 0 0 0 0 .07 0"></feColorMatrix></filter>
  </defs>
  <rect width="200" height="200" fill="url(#pgk)"></rect>
  <rect width="200" height="200" filter="url(#pgrainK)" opacity=".5"></rect>
  <rect x="12" y="12" width="176" height="176" fill="none" stroke="#7a8b4f" stroke-opacity=".35"></rect>
  
  <g fill="#4c4d5b" stroke="#7a8b4f" stroke-width="1">
    <g transform="translate(72 80)">
      <g>
        <rect x="-3" y="-36" width="6" height="10"></rect><rect x="-3" y="26" width="6" height="10"></rect>
        <rect x="-36" y="-3" width="10" height="6"></rect><rect x="26" y="-3" width="10" height="6"></rect>
        <rect x="-26" y="-26" width="6" height="10" transform="rotate(45 -23 -21)"></rect>
        <rect x="20" y="-26" width="6" height="10" transform="rotate(-45 23 -21)"></rect>
        <rect x="-26" y="16" width="6" height="10" transform="rotate(-45 -23 21)"></rect>
        <rect x="20" y="16" width="6" height="10" transform="rotate(45 23 21)"></rect>
      </g>
      <circle cx="0" cy="0" r="26"></circle>
      <circle cx="0" cy="0" r="8" fill="#2a1f3a"></circle>
    </g>
    <g transform="translate(132 110)">
      <g>
        <rect x="-3" y="-30" width="6" height="9"></rect><rect x="-3" y="21" width="6" height="9"></rect>
        <rect x="-30" y="-3" width="9" height="6"></rect><rect x="21" y="-3" width="9" height="6"></rect>
      </g>
      <circle cx="0" cy="0" r="22"></circle>
      <circle cx="0" cy="0" r="6" fill="#2a1f3a"></circle>
    </g>
  </g>
  <path d="M40 150 L160 150" stroke="#C8F76A" stroke-width="1.5"></path>
  <path d="M160 150 L154 146 M160 150 L154 154" stroke="#C8F76A" stroke-width="1.5" fill="none"></path>
  <text x="100" y="180" text-anchor="middle" font-family="Geist Mono, monospace" font-size="8" fill="#7a8b4f" letter-spacing="2">CI · CD · PIPELINE</text>

</svg>