<svg xmlns="http://www.w3.org/2000/svg" viewBox="0 0 240 320" width="240" height="320" role="img" aria-label="Saboteur">
  <defs>
    <radialGradient id="g" cx="50%" cy="38%" r="62%">
      <stop offset="0%" stop-color="#17202e"></stop><stop offset="100%" stop-color="#0b111c"></stop>
    </radialGradient>
    <filter id="grain"><feTurbulence type="fractalNoise" baseFrequency=".9" numOctaves="2" seed="3"></feTurbulence><feColorMatrix values="0 0 0 0 0 0 0 0 0 0 0 0 0 0 0 0 0 0 .06 0"></feColorMatrix></filter>
  </defs>
  <rect x="0" y="0" width="240" height="320" fill="url(#g)"></rect>
  <rect x="0" y="0" width="240" height="320" filter="url(#grain)" opacity=".5"></rect>
  <rect x="14" y="14" width="212" height="292" fill="none" stroke="#d7b06a" stroke-opacity=".22" stroke-width="1"></rect>
  <g stroke="#d7b06a" stroke-opacity=".55" stroke-width="1" fill="none">
    <path d="M14 24 L14 14 L24 14"></path><path d="M226 24 L226 14 L216 14"></path>
    <path d="M14 296 L14 306 L24 306"></path><path d="M226 296 L226 306 L216 306"></path>
  </g>
  
  <g fill="#1d2736">
    <path d="M80 78 Q120 36 160 78 L168 134 Q160 144 152 142 L88 142 Q80 144 72 134 Z"></path>
    <path d="M70 140 L60 282 L180 282 L170 140 Z"></path>
    <path d="M70 148 L42 240 L58 248 L84 168 Z"></path>
    <path d="M170 148 L198 240 L182 248 L156 168 Z"></path>
  </g>
  <ellipse cx="120" cy="106" rx="26" ry="22" fill="#0b111c"></ellipse>
  <rect x="100" y="104" width="10" height="3" fill="#d7b06a" opacity=".95"></rect>
  <rect x="130" y="104" width="10" height="3" fill="#d7b06a" opacity=".95"></rect>
  <path d="M60 282 L70 274 L82 282 L94 274 L106 282 L118 274 L130 282 L142 274 L154 282 L166 274 L180 282 Z" fill="#1d2736"></path>
  <text x="120" y="296" text-anchor="middle" font-family="Geist Mono, monospace" font-size="9" fill="#d7b06a" letter-spacing="2">SABOTEUR · SCHATTEN</text>

</svg>