<svg xmlns="http://www.w3.org/2000/svg" viewBox="0 0 320 200" width="320" height="200">
  <g fill="none" stroke="#C8C0D4" stroke-width="1.5">
    <rect x="130" y="20" width="60" height="36" rx="6"></rect>
    <text x="160" y="42" text-anchor="middle" font-family="JetBrains Mono, monospace" font-size="9" fill="#C8C0D4">control-plane</text>
    <rect x="30" y="120" width="70" height="56" rx="6"></rect>
    <rect x="125" y="120" width="70" height="56" rx="6"></rect>
    <rect x="220" y="120" width="70" height="56" rx="6"></rect>
    <text x="65" y="140" text-anchor="middle" font-family="JetBrains Mono, monospace" font-size="9" fill="#C8C0D4">node-01</text>
    <text x="160" y="140" text-anchor="middle" font-family="JetBrains Mono, monospace" font-size="9" fill="#C8C0D4">node-02</text>
    <text x="255" y="140" text-anchor="middle" font-family="JetBrains Mono, monospace" font-size="9" fill="#C8C0D4">node-03</text>
    <circle cx="50" cy="160" r="4" fill="#5BD4D0" stroke="none"></circle>
    <circle cx="65" cy="160" r="4" fill="#5BD4D0" stroke="none"></circle>
    <circle cx="80" cy="160" r="4" fill="#C8F76A" stroke="none"></circle>
    <circle cx="145" cy="160" r="4" fill="#5BD4D0" stroke="none"></circle>
    <circle cx="160" cy="160" r="4" fill="#5BD4D0" stroke="none"></circle>
    <circle cx="175" cy="160" r="4" fill="#5BD4D0" stroke="none"></circle>
    <circle cx="240" cy="160" r="4" fill="#5BD4D0" stroke="none"></circle>
    <circle cx="255" cy="160" r="4" fill="#C8F76A" stroke="none"></circle>
    <circle cx="270" cy="160" r="4" fill="#5BD4D0" stroke="none"></circle>
    <line x1="160" y1="56" x2="65" y2="120"></line>
    <line x1="160" y1="56" x2="160" y2="120"></line>
    <line x1="160" y1="56" x2="255" y2="120"></line>
  </g>
</svg>