<svg id="my-svg" width="100%" xmlns="http://www.w3.org/2000/svg" xmlns:xlink="http://www.w3.org/1999/xlink" class="erDiagram" style="max-width: 1104.86px; background-color: transparent;" viewBox="0 0 1104.859375 651.75" role="graphics-document document" aria-roledescription="er"><style>#my-svg{font-family:"trebuchet ms",verdana,arial,sans-serif;font-size:16px;fill:#333;}@keyframes edge-animation-frame{from{stroke-dashoffset:0;}}@keyframes dash{to{stroke-dashoffset:0;}}#my-svg .edge-animation-slow{stroke-dasharray:9,5!important;stroke-dashoffset:900;animation:dash 50s linear infinite;stroke-linecap:round;}#my-svg .edge-animation-fast{stroke-dasharray:9,5!important;stroke-dashoffset:900;animation:dash 20s linear infinite;stroke-linecap:round;}#my-svg .error-icon{fill:#552222;}#my-svg .error-text{fill:#552222;stroke:#552222;}#my-svg .edge-thickness-normal{stroke-width:1px;}#my-svg .edge-thickness-thick{stroke-width:3.5px;}#my-svg .edge-pattern-solid{stroke-dasharray:0;}#my-svg .edge-thickness-invisible{stroke-width:0;fill:none;}#my-svg .edge-pattern-dashed{stroke-dasharray:3;}#my-svg .edge-pattern-dotted{stroke-dasharray:2;}#my-svg .marker{fill:#333333;stroke:#333333;}#my-svg .marker.cross{stroke:#333333;}#my-svg svg{font-family:"trebuchet ms",verdana,arial,sans-serif;font-size:16px;}#my-svg p{margin:0;}#my-svg .entityBox{fill:#ECECFF;stroke:#9370DB;}#my-svg .relationshipLabelBox{fill:hsl(80, 100%, 96.2745098039%);opacity:0.7;background-color:hsl(80, 100%, 96.2745098039%);}#my-svg .relationshipLabelBox rect{opacity:0.5;}#my-svg .labelBkg{background-color:rgba(248.6666666666, 255, 235.9999999999, 0.5);}#my-svg .edgeLabel{background-color:rgba(232,232,232, 0.8);}#my-svg .edgeLabel .label rect{fill:rgba(232,232,232, 0.8);}#my-svg .edgeLabel .label text{fill:#333;}#my-svg .edgeLabel .label{fill:#9370DB;font-size:14px;}#my-svg .label{font-family:"trebuchet ms",verdana,arial,sans-serif;color:#333;}#my-svg .edge-pattern-dashed{stroke-dasharray:8,8;}#my-svg .node rect,#my-svg .node circle,#my-svg .node ellipse,#my-svg .node polygon{fill:#ECECFF;stroke:#9370DB;stroke-width:1px;}#my-svg .relationshipLine{stroke:#333333;stroke-width:1px;fill:none;}#my-svg .marker{fill:none!important;stroke:#333333!important;stroke-width:1;}#my-svg [data-look=neo].labelBkg{background-color:rgba(248.6666666666, 255, 235.9999999999, 0.5);}#my-svg .node .neo-node{stroke:#9370DB;}#my-svg [data-look="neo"].node rect,#my-svg [data-look="neo"].cluster rect,#my-svg [data-look="neo"].node polygon{stroke:#9370DB;filter:drop-shadow(1px 2px 2px rgba(185, 185, 185, 1));}#my-svg [data-look="neo"].node path{stroke:#9370DB;stroke-width:1px;}#my-svg [data-look="neo"].node .outer-path{filter:drop-shadow(1px 2px 2px rgba(185, 185, 185, 1));}#my-svg [data-look="neo"].node .neo-line path{stroke:#9370DB;filter:none;}#my-svg [data-look="neo"].node circle{stroke:#9370DB;filter:drop-shadow(1px 2px 2px rgba(185, 185, 185, 1));}#my-svg [data-look="neo"].node circle .state-start{fill:#000000;}#my-svg [data-look="neo"].icon-shape .icon{fill:#9370DB;filter:drop-shadow(1px 2px 2px rgba(185, 185, 185, 1));}#my-svg [data-look="neo"].icon-shape .icon-neo path{stroke:#9370DB;filter:drop-shadow(1px 2px 2px rgba(185, 185, 185, 1));}#my-svg :root{--mermaid-font-family:"trebuchet ms",verdana,arial,sans-serif;}</style><g><defs><marker id="my-svg_er-onlyOneStart" class="marker onlyOne er" refX="0" refY="9" markerWidth="18" markerHeight="18" orient="auto"><path d="M9,0 L9,18 M15,0 L15,18"/></marker></defs><defs><marker id="my-svg_er-onlyOneEnd" class="marker onlyOne er" refX="18" refY="9" markerWidth="18" markerHeight="18" orient="auto"><path d="M3,0 L3,18 M9,0 L9,18"/></marker></defs><defs><marker id="my-svg_er-zeroOrOneStart" class="marker zeroOrOne er" refX="0" refY="9" markerWidth="30" markerHeight="18" orient="auto"><circle fill="white" cx="21" cy="9" r="6"/><path d="M9,0 L9,18"/></marker></defs><defs><marker id="my-svg_er-zeroOrOneEnd" class="marker zeroOrOne er" refX="30" refY="9" markerWidth="30" markerHeight="18" orient="auto"><circle fill="white" cx="9" cy="9" r="6"/><path d="M21,0 L21,18"/></marker></defs><defs><marker id="my-svg_er-oneOrMoreStart" class="marker oneOrMore er" refX="18" refY="18" markerWidth="45" markerHeight="36" orient="auto"><path d="M0,18 Q 18,0 36,18 Q 18,36 0,18 M42,9 L42,27"/></marker></defs><defs><marker id="my-svg_er-oneOrMoreEnd" class="marker oneOrMore er" refX="27" refY="18" markerWidth="45" markerHeight="36" orient="auto"><path d="M3,9 L3,27 M9,18 Q27,0 45,18 Q27,36 9,18"/></marker></defs><defs><marker id="my-svg_er-zeroOrMoreStart" class="marker zeroOrMore er" refX="18" refY="18" markerWidth="57" markerHeight="36" orient="auto"><circle fill="white" cx="48" cy="18" r="6"/><path d="M0,18 Q18,0 36,18 Q18,36 0,18"/></marker></defs><defs><marker id="my-svg_er-zeroOrMoreEnd" class="marker zeroOrMore er" refX="39" refY="18" markerWidth="57" markerHeight="36" orient="auto"><circle fill="white" cx="9" cy="18" r="6"/><path d="M21,18 Q39,0 57,18 Q39,36 21,18"/></marker></defs><g class="root"><g class="clusters"/><g class="edgePaths"><path d="M152.227,264.5L152.227,271.167C152.227,277.833,152.227,291.167,152.227,304.5C152.227,317.833,152.227,331.167,152.227,337.833L152.227,344.5" id="my-svg-id_entity-assistant_conversations-0_entity-assistant_messages-2_0" class="edge-thickness-normal edge-pattern-solid relationshipLine" style="undefined;;;undefined" data-edge="true" data-et="edge" data-id="id_entity-assistant_conversations-0_entity-assistant_messages-2_0" data-points="W3sieCI6MTUyLjIyNjU2MjUsInkiOjI2NC41fSx7IngiOjE1Mi4yMjY1NjI1LCJ5IjozMDQuNX0seyJ4IjoxNTIuMjI2NTYyNSwieSI6MzQ0LjV9XQ==" data-look="classic" marker-start="url(#my-svg_er-onlyOneStart)" marker-end="url(#my-svg_er-zeroOrMoreEnd)"/></g><g class="edgeLabels"><g class="edgeLabel"><g class="label" data-id="id_entity-assistant_conversations-0_entity-assistant_messages-2_0" transform="translate(0, 0)"><foreignObject width="0" height="0"><div xmlns="http://www.w3.org/1999/xhtml" class="labelBkg" style="display: table-cell; white-space: nowrap; line-height: 1.5; max-width: 200px; text-align: center;"><span class="edgeLabel"></span></div></foreignObject></g></g></g><g class="nodes"><g class="node default" id="my-svg-entity-assistant_conversations-0" data-look="classic" transform="translate(152.2265625, 136.25)"><g class="outer-path" style=""><path d="M-133.9921875 -128.25 L133.9921875 -128.25 L133.9921875 128.25 L-133.9921875 128.25" stroke="none" stroke-width="0" fill="#ECECFF"/><path d="M-133.9921875 -128.25 C-48.86277255973502 -128.25, 36.26664238052996 -128.25, 133.9921875 -128.25 M-133.9921875 -128.25 C-49.52792760988004 -128.25, 34.936332280239924 -128.25, 133.9921875 -128.25 M133.9921875 -128.25 C133.9921875 -48.481780599722114, 133.9921875 31.28643880055577, 133.9921875 128.25 M133.9921875 -128.25 C133.9921875 -29.91384565652261, 133.9921875 68.42230868695478, 133.9921875 128.25 M133.9921875 128.25 C35.248022601601164 128.25, -63.49614229679767 128.25, -133.9921875 128.25 M133.9921875 128.25 C63.352869106804135 128.25, -7.286449286391729 128.25, -133.9921875 128.25 M-133.9921875 128.25 C-133.9921875 45.67394886229667, -133.9921875 -36.90210227540666, -133.9921875 -128.25 M-133.9921875 128.25 C-133.9921875 45.85993655749046, -133.9921875 -36.53012688501909, -133.9921875 -128.25" stroke="#9370DB" stroke-width="1.3" fill="none" stroke-dasharray="0 0"/></g><g style="" class="row-rect-odd"><path d="M-133.9921875 -85.5 L133.9921875 -85.5 L133.9921875 -42.75 L-133.9921875 -42.75" stroke="none" stroke-width="0" fill="hsl(240, 100%, 100%)"/><path d="M-133.9921875 -85.5 C-42.13689039863388 -85.5, 49.71840670273224 -85.5, 133.9921875 -85.5 M-133.9921875 -85.5 C-33.02133385010826 -85.5, 67.94951979978347 -85.5, 133.9921875 -85.5 M133.9921875 -85.5 C133.9921875 -74.98284378715451, 133.9921875 -64.465687574309, 133.9921875 -42.75 M133.9921875 -85.5 C133.9921875 -70.5777503110492, 133.9921875 -55.65550062209839, 133.9921875 -42.75 M133.9921875 -42.75 C49.79692225244284 -42.75, -34.39834299511432 -42.75, -133.9921875 -42.75 M133.9921875 -42.75 C72.15856762444068 -42.75, 10.324947748881343 -42.75, -133.9921875 -42.75 M-133.9921875 -42.75 C-133.9921875 -53.421126102162084, -133.9921875 -64.09225220432417, -133.9921875 -85.5 M-133.9921875 -42.75 C-133.9921875 -56.86900124846808, -133.9921875 -70.98800249693616, -133.9921875 -85.5" stroke="#9370DB" stroke-width="1.3" fill="none" stroke-dasharray="0 0"/></g><g style="" class="row-rect-even"><path d="M-133.9921875 -42.75 L133.9921875 -42.75 L133.9921875 0 L-133.9921875 0" stroke="none" stroke-width="0" fill="hsl(240, 100%, 97.2745098039%)"/><path d="M-133.9921875 -42.75 C-57.2550997498259 -42.75, 19.481988000348196 -42.75, 133.9921875 -42.75 M-133.9921875 -42.75 C-60.929414187082045 -42.75, 12.13335912583591 -42.75, 133.9921875 -42.75 M133.9921875 -42.75 C133.9921875 -29.935353759094532, 133.9921875 -17.12070751818906, 133.9921875 0 M133.9921875 -42.75 C133.9921875 -27.732335199520477, 133.9921875 -12.714670399040951, 133.9921875 0 M133.9921875 0 C49.82404665501669 0, -34.344094189966626 0, -133.9921875 0 M133.9921875 0 C56.86860508752143 0, -20.25497732495714 0, -133.9921875 0 M-133.9921875 0 C-133.9921875 -13.527053165765645, -133.9921875 -27.05410633153129, -133.9921875 -42.75 M-133.9921875 0 C-133.9921875 -9.955865475772196, -133.9921875 -19.911730951544392, -133.9921875 -42.75" stroke="#9370DB" stroke-width="1.3" fill="none" stroke-dasharray="0 0"/></g><g style="" class="row-rect-odd"><path d="M-133.9921875 0 L133.9921875 0 L133.9921875 42.75 L-133.9921875 42.75" stroke="none" stroke-width="0" fill="hsl(240, 100%, 100%)"/><path d="M-133.9921875 0 C-45.046892617736574 0, 43.89840226452685 0, 133.9921875 0 M-133.9921875 0 C-58.519824401265396 0, 16.95253869746921 0, 133.9921875 0 M133.9921875 0 C133.9921875 14.077247941716447, 133.9921875 28.154495883432894, 133.9921875 42.75 M133.9921875 0 C133.9921875 10.639871891270342, 133.9921875 21.279743782540685, 133.9921875 42.75 M133.9921875 42.75 C48.53997285992895 42.75, -36.9122417801421 42.75, -133.9921875 42.75 M133.9921875 42.75 C30.352685085439546 42.75, -73.28681732912091 42.75, -133.9921875 42.75 M-133.9921875 42.75 C-133.9921875 30.98827339202851, -133.9921875 19.22654678405702, -133.9921875 0 M-133.9921875 42.75 C-133.9921875 32.135646210802214, -133.9921875 21.52129242160443, -133.9921875 0" stroke="#9370DB" stroke-width="1.3" fill="none" stroke-dasharray="0 0"/></g><g style="" class="row-rect-even"><path d="M-133.9921875 42.75 L133.9921875 42.75 L133.9921875 85.5 L-133.9921875 85.5" stroke="none" stroke-width="0" fill="hsl(240, 100%, 97.2745098039%)"/><path d="M-133.9921875 42.75 C-43.821429780884785 42.75, 46.34932793823043 42.75, 133.9921875 42.75 M-133.9921875 42.75 C-43.571202797875856 42.75, 46.84978190424829 42.75, 133.9921875 42.75 M133.9921875 42.75 C133.9921875 57.99175143906439, 133.9921875 73.23350287812877, 133.9921875 85.5 M133.9921875 42.75 C133.9921875 54.35958455889292, 133.9921875 65.96916911778584, 133.9921875 85.5 M133.9921875 85.5 C38.94038296832825 85.5, -56.1114215633435 85.5, -133.9921875 85.5 M133.9921875 85.5 C62.08987613045332 85.5, -9.812435239093361 85.5, -133.9921875 85.5 M-133.9921875 85.5 C-133.9921875 70.11462180253199, -133.9921875 54.729243605063985, -133.9921875 42.75 M-133.9921875 85.5 C-133.9921875 69.80960897644191, -133.9921875 54.11921795288383, -133.9921875 42.75" stroke="#9370DB" stroke-width="1.3" fill="none" stroke-dasharray="0 0"/></g><g style="" class="row-rect-odd"><path d="M-133.9921875 85.5 L133.9921875 85.5 L133.9921875 128.25 L-133.9921875 128.25" stroke="none" stroke-width="0" fill="hsl(240, 100%, 100%)"/><path d="M-133.9921875 85.5 C-63.96393071152322 85.5, 6.064326076953563 85.5, 133.9921875 85.5 M-133.9921875 85.5 C-61.44690134192612 85.5, 11.098384816147757 85.5, 133.9921875 85.5 M133.9921875 85.5 C133.9921875 99.94930450828298, 133.9921875 114.39860901656596, 133.9921875 128.25 M133.9921875 85.5 C133.9921875 101.65616624637889, 133.9921875 117.81233249275778, 133.9921875 128.25 M133.9921875 128.25 C36.3912600017251 128.25, -61.2096674965498 128.25, -133.9921875 128.25 M133.9921875 128.25 C74.38929141751774 128.25, 14.786395335035479 128.25, -133.9921875 128.25 M-133.9921875 128.25 C-133.9921875 112.02146102347764, -133.9921875 95.79292204695528, -133.9921875 85.5 M-133.9921875 128.25 C-133.9921875 113.59946633062272, -133.9921875 98.94893266124544, -133.9921875 85.5" stroke="#9370DB" stroke-width="1.3" fill="none" stroke-dasharray="0 0"/></g><g class="label name" transform="translate(-85.3828125, -118.875)" style=""><foreignObject width="170.765625" height="24"><div xmlns="http://www.w3.org/1999/xhtml" style="display: table-cell; white-space: nowrap; line-height: 1.5; max-width: 271px; text-align: start;"><span class="nodeLabel"><p>assistant_conversations</p></span></div></foreignObject></g><g class="label attribute-type" transform="translate(-121.4921875, -76.125)" style=""><foreignObject width="30.25" height="24"><div xmlns="http://www.w3.org/1999/xhtml" style="display: table-cell; white-space: nowrap; line-height: 1.5; max-width: 128px; text-align: start;"><span class="nodeLabel"><p>uuid</p></span></div></foreignObject></g><g class="label attribute-name" transform="translate(-22.6953125, -76.125)" style=""><foreignObject width="12.453125" height="24"><div xmlns="http://www.w3.org/1999/xhtml" style="display: table-cell; white-space: nowrap; line-height: 1.5; max-width: 112px; text-align: start;"><span class="nodeLabel"><p>id</p></span></div></foreignObject></g><g class="label attribute-keys" transform="translate(100.1484375, -76.125)" style=""><foreignObject width="21.34375" height="24"><div xmlns="http://www.w3.org/1999/xhtml" style="display: table-cell; white-space: nowrap; line-height: 1.5; max-width: 121px; text-align: start;"><span class="nodeLabel"><p>PK</p></span></div></foreignObject></g><g class="label attribute-comment" transform="translate(146.4921875, -76.125)" style=""><foreignObject width="0" height="0"><div xmlns="http://www.w3.org/1999/xhtml" style="display: table-cell; white-space: nowrap; line-height: 1.5; max-width: 100px; text-align: start;"><span class="nodeLabel"></span></div></foreignObject></g><g class="label attribute-type" transform="translate(-121.4921875, -33.375)" style=""><foreignObject width="39.125" height="24"><div xmlns="http://www.w3.org/1999/xhtml" style="display: table-cell; white-space: nowrap; line-height: 1.5; max-width: 136px; text-align: start;"><span class="nodeLabel"><p>string</p></span></div></foreignObject></g><g class="label attribute-name" transform="translate(-22.6953125, -33.375)" style=""><foreignObject width="65.828125" height="24"><div xmlns="http://www.w3.org/1999/xhtml" style="display: table-cell; white-space: nowrap; line-height: 1.5; max-width: 166px; text-align: start;"><span class="nodeLabel"><p>user_sub</p></span></div></foreignObject></g><g class="label attribute-keys" transform="translate(100.1484375, -33.375)" style=""><foreignObject width="0" height="0"><div xmlns="http://www.w3.org/1999/xhtml" style="display: table-cell; white-space: nowrap; line-height: 1.5; max-width: 100px; text-align: start;"><span class="nodeLabel"></span></div></foreignObject></g><g class="label attribute-comment" transform="translate(146.4921875, -33.375)" style=""><foreignObject width="0" height="0"><div xmlns="http://www.w3.org/1999/xhtml" style="display: table-cell; white-space: nowrap; line-height: 1.5; max-width: 100px; text-align: start;"><span class="nodeLabel"></span></div></foreignObject></g><g class="label attribute-type" transform="translate(-121.4921875, 9.375)" style=""><foreignObject width="39.125" height="24"><div xmlns="http://www.w3.org/1999/xhtml" style="display: table-cell; white-space: nowrap; line-height: 1.5; max-width: 136px; text-align: start;"><span class="nodeLabel"><p>string</p></span></div></foreignObject></g><g class="label attribute-name" transform="translate(-22.6953125, 9.375)" style=""><foreignObject width="43.578125" height="24"><div xmlns="http://www.w3.org/1999/xhtml" style="display: table-cell; white-space: nowrap; line-height: 1.5; max-width: 143px; text-align: start;"><span class="nodeLabel"><p>profile</p></span></div></foreignObject></g><g class="label attribute-keys" transform="translate(100.1484375, 9.375)" style=""><foreignObject width="0" height="0"><div xmlns="http://www.w3.org/1999/xhtml" style="display: table-cell; white-space: nowrap; line-height: 1.5; max-width: 100px; text-align: start;"><span class="nodeLabel"></span></div></foreignObject></g><g class="label attribute-comment" transform="translate(146.4921875, 9.375)" style=""><foreignObject width="0" height="0"><div xmlns="http://www.w3.org/1999/xhtml" style="display: table-cell; white-space: nowrap; line-height: 1.5; max-width: 100px; text-align: start;"><span class="nodeLabel"></span></div></foreignObject></g><g class="label attribute-type" transform="translate(-121.4921875, 52.125)" style=""><foreignObject width="73.796875" height="24"><div xmlns="http://www.w3.org/1999/xhtml" style="display: table-cell; white-space: nowrap; line-height: 1.5; max-width: 167px; text-align: start;"><span class="nodeLabel"><p>timestamp</p></span></div></foreignObject></g><g class="label attribute-name" transform="translate(-22.6953125, 52.125)" style=""><foreignObject width="75.609375" height="24"><div xmlns="http://www.w3.org/1999/xhtml" style="display: table-cell; white-space: nowrap; line-height: 1.5; max-width: 176px; text-align: start;"><span class="nodeLabel"><p>created_at</p></span></div></foreignObject></g><g class="label attribute-keys" transform="translate(100.1484375, 52.125)" style=""><foreignObject width="0" height="0"><div xmlns="http://www.w3.org/1999/xhtml" style="display: table-cell; white-space: nowrap; line-height: 1.5; max-width: 100px; text-align: start;"><span class="nodeLabel"></span></div></foreignObject></g><g class="label attribute-comment" transform="translate(146.4921875, 52.125)" style=""><foreignObject width="0" height="0"><div xmlns="http://www.w3.org/1999/xhtml" style="display: table-cell; white-space: nowrap; line-height: 1.5; max-width: 100px; text-align: start;"><span class="nodeLabel"></span></div></foreignObject></g><g class="label attribute-type" transform="translate(-121.4921875, 94.875)" style=""><foreignObject width="73.796875" height="24"><div xmlns="http://www.w3.org/1999/xhtml" style="display: table-cell; white-space: nowrap; line-height: 1.5; max-width: 167px; text-align: start;"><span class="nodeLabel"><p>timestamp</p></span></div></foreignObject></g><g class="label attribute-name" transform="translate(-22.6953125, 94.875)" style=""><foreignObject width="97.84375" height="24"><div xmlns="http://www.w3.org/1999/xhtml" style="display: table-cell; white-space: nowrap; line-height: 1.5; max-width: 198px; text-align: start;"><span class="nodeLabel"><p>last_active_at</p></span></div></foreignObject></g><g class="label attribute-keys" transform="translate(100.1484375, 94.875)" style=""><foreignObject width="0" height="0"><div xmlns="http://www.w3.org/1999/xhtml" style="display: table-cell; white-space: nowrap; line-height: 1.5; max-width: 100px; text-align: start;"><span class="nodeLabel"></span></div></foreignObject></g><g class="label attribute-comment" transform="translate(146.4921875, 94.875)" style=""><foreignObject width="0" height="0"><div xmlns="http://www.w3.org/1999/xhtml" style="display: table-cell; white-space: nowrap; line-height: 1.5; max-width: 100px; text-align: start;"><span class="nodeLabel"></span></div></foreignObject></g><g class="divider"><path d="M-133.9921875 -85.50005 L-133.9921875 -85.49995 L133.9921875 -85.49995 L133.9921875 -85.50005" stroke="none" stroke-width="0" fill="#ECECFF" fill-rule="evenodd"/><path d="M-133.9921875 -85.50005 C-133.9921875 -85.50002342968781, -133.9921875 -85.49999685937563, -133.9921875 -85.49995 M-133.9921875 -85.50005 C-133.9921875 -85.50001553066076, -133.9921875 -85.49998106132152, -133.9921875 -85.49995 M-133.9921875 -85.49995 C-64.19029210241438 -85.49995, 5.61160329517125 -85.49995, 133.9921875 -85.49995 M-133.9921875 -85.49995 C-75.59828409016009 -85.49995, -17.2043806803202 -85.49995, 133.9921875 -85.49995 M133.9921875 -85.49995 C133.9921875 -85.49998982233882, 133.9921875 -85.50002964467764, 133.9921875 -85.50005 M133.9921875 -85.49995 C133.9921875 -85.49997626046282, 133.9921875 -85.50000252092565, 133.9921875 -85.50005 M133.9921875 -85.50005 C65.04614203685239 -85.50005, -3.899903426295225 -85.50005, -133.9921875 -85.50005 M133.9921875 -85.50005 C46.98379126558896 -85.50005, -40.024604968822075 -85.50005, -133.9921875 -85.50005" stroke="#9370DB" stroke-width="1.3" fill="none" stroke-dasharray="0 0"/></g><g class="divider"><path d="M-35.1953625 -85.5 L-35.1952625 -85.5 L-35.1952625 128.25 L-35.1953625 128.25" stroke="none" stroke-width="0" fill="#ECECFF" fill-rule="evenodd"/><path d="M-35.1953625 -85.5 C-35.195339636291834 -85.5, -35.195316772583666 -85.5, -35.1952625 -85.5 M-35.1953625 -85.5 C-35.19534004620338 -85.5, -35.19531759240675 -85.5, -35.1952625 -85.5 M-35.1952625 -85.5 C-35.1952625 -5.980977477695191, -35.1952625 73.53804504460962, -35.1952625 128.25 M-35.1952625 -85.5 C-35.1952625 -37.254769031145244, -35.1952625 10.990461937709512, -35.1952625 128.25 M-35.1952625 128.25 C-35.195291026136275 128.25, -35.19531955227255 128.25, -35.1953625 128.25 M-35.1952625 128.25 C-35.19528364245173 128.25, -35.19530478490346 128.25, -35.1953625 128.25 M-35.1953625 128.25 C-35.1953625 50.539798292714806, -35.1953625 -27.170403414570387, -35.1953625 -85.5 M-35.1953625 128.25 C-35.1953625 80.39653441204442, -35.1953625 32.543068824088834, -35.1953625 -85.5" stroke="#9370DB" stroke-width="1.3" fill="none" stroke-dasharray="0 0"/></g><g class="divider"><path d="M87.6483875 -85.5 L87.6484875 -85.5 L87.6484875 128.25 L87.6483875 128.25" stroke="none" stroke-width="0" fill="#ECECFF" fill-rule="evenodd"/><path d="M87.6483875 -85.5 C87.64842502167527 -85.5, 87.64846254335053 -85.5, 87.6484875 -85.5 M87.6483875 -85.5 C87.64841932608967 -85.5, 87.64845115217933 -85.5, 87.6484875 -85.5 M87.6484875 -85.5 C87.6484875 -20.88181545786955, 87.6484875 43.7363690842609, 87.6484875 128.25 M87.6484875 -85.5 C87.6484875 -23.280156087795497, 87.6484875 38.939687824409006, 87.6484875 128.25 M87.6484875 128.25 C87.64845971621466 128.25, 87.64843193242932 128.25, 87.6483875 128.25 M87.6484875 128.25 C87.64846042378866 128.25, 87.64843334757731 128.25, 87.6483875 128.25 M87.6483875 128.25 C87.6483875 44.197019774267815, 87.6483875 -39.85596045146437, 87.6483875 -85.5 M87.6483875 128.25 C87.6483875 70.90192315920373, 87.6483875 13.55384631840748, 87.6483875 -85.5" stroke="#9370DB" stroke-width="1.3" fill="none" stroke-dasharray="0 0"/></g><g class="divider"><path d="M-133.9921875 -85.50005 L-133.9921875 -85.49995 L133.9921875 -85.49995 L133.9921875 -85.50005" stroke="none" stroke-width="0" fill="#ECECFF" fill-rule="evenodd"/><path d="M-133.9921875 -85.50005 C-133.9921875 -85.50001011133205, -133.9921875 -85.49997022266409, -133.9921875 -85.49995 M-133.9921875 -85.50005 C-133.9921875 -85.50002114339652, -133.9921875 -85.49999228679305, -133.9921875 -85.49995 M-133.9921875 -85.49995 C-62.413881506783795 -85.49995, 9.16442448643241 -85.49995, 133.9921875 -85.49995 M-133.9921875 -85.49995 C-30.47427236801846 -85.49995, 73.04364276396308 -85.49995, 133.9921875 -85.49995 M133.9921875 -85.49995 C133.9921875 -85.49997534799253, 133.9921875 -85.50000069598507, 133.9921875 -85.50005 M133.9921875 -85.49995 C133.9921875 -85.49998531371163, 133.9921875 -85.50002062742327, 133.9921875 -85.50005 M133.9921875 -85.50005 C69.83317399718263 -85.50005, 5.674160494365253 -85.50005, -133.9921875 -85.50005 M133.9921875 -85.50005 C63.05095887141995 -85.50005, -7.890269757160098 -85.50005, -133.9921875 -85.50005" stroke="#9370DB" stroke-width="1.3" fill="none" stroke-dasharray="0 0"/></g></g><g class="node default" id="my-svg-entity-assistant_first_seen-1" data-look="classic" transform="translate(557.09375, 136.25)"><g class="outer-path" style=""><path d="M-130.875 -85.5 L130.875 -85.5 L130.875 85.5 L-130.875 85.5" stroke="none" stroke-width="0" fill="#ECECFF"/><path d="M-130.875 -85.5 C-72.78651291988216 -85.5, -14.698025839764313 -85.5, 130.875 -85.5 M-130.875 -85.5 C-48.806127478815114 -85.5, 33.26274504236977 -85.5, 130.875 -85.5 M130.875 -85.5 C130.875 -22.612816333772933, 130.875 40.27436733245413, 130.875 85.5 M130.875 -85.5 C130.875 -28.158943765664596, 130.875 29.18211246867081, 130.875 85.5 M130.875 85.5 C31.29071478069612 85.5, -68.29357043860776 85.5, -130.875 85.5 M130.875 85.5 C30.888698817570273 85.5, -69.09760236485945 85.5, -130.875 85.5 M-130.875 85.5 C-130.875 33.13063117578897, -130.875 -19.23873764842206, -130.875 -85.5 M-130.875 85.5 C-130.875 30.18014050895963, -130.875 -25.139718982080737, -130.875 -85.5" stroke="#9370DB" stroke-width="1.3" fill="none" stroke-dasharray="0 0"/></g><g style="" class="row-rect-odd"><path d="M-130.875 -42.75 L130.875 -42.75 L130.875 0 L-130.875 0" stroke="none" stroke-width="0" fill="hsl(240, 100%, 100%)"/><path d="M-130.875 -42.75 C-60.796477962098464 -42.75, 9.282044075803071 -42.75, 130.875 -42.75 M-130.875 -42.75 C-35.7737969196137 -42.75, 59.3274061607726 -42.75, 130.875 -42.75 M130.875 -42.75 C130.875 -29.994119554024124, 130.875 -17.238239108048244, 130.875 0 M130.875 -42.75 C130.875 -26.508249382282663, 130.875 -10.266498764565327, 130.875 0 M130.875 0 C43.57876363842496 0, -43.71747272315008 0, -130.875 0 M130.875 0 C46.580608075597866 0, -37.71378384880427 0, -130.875 0 M-130.875 0 C-130.875 -15.41728651108747, -130.875 -30.83457302217494, -130.875 -42.75 M-130.875 0 C-130.875 -11.905666823136917, -130.875 -23.811333646273834, -130.875 -42.75" stroke="#9370DB" stroke-width="1.3" fill="none" stroke-dasharray="0 0"/></g><g style="" class="row-rect-even"><path d="M-130.875 0 L130.875 0 L130.875 42.75 L-130.875 42.75" stroke="none" stroke-width="0" fill="hsl(240, 100%, 97.2745098039%)"/><path d="M-130.875 0 C-75.21152988829402 0, -19.54805977658806 0, 130.875 0 M-130.875 0 C-62.39773917379557 0, 6.079521652408857 0, 130.875 0 M130.875 0 C130.875 9.348134303943285, 130.875 18.69626860788657, 130.875 42.75 M130.875 0 C130.875 11.786333722376295, 130.875 23.57266744475259, 130.875 42.75 M130.875 42.75 C32.22700118596646 42.75, -66.42099762806708 42.75, -130.875 42.75 M130.875 42.75 C41.20149479047416 42.75, -48.472010419051685 42.75, -130.875 42.75 M-130.875 42.75 C-130.875 30.771060634588956, -130.875 18.79212126917791, -130.875 0 M-130.875 42.75 C-130.875 27.064562034673422, -130.875 11.379124069346847, -130.875 0" stroke="#9370DB" stroke-width="1.3" fill="none" stroke-dasharray="0 0"/></g><g style="" class="row-rect-odd"><path d="M-130.875 42.75 L130.875 42.75 L130.875 85.5 L-130.875 85.5" stroke="none" stroke-width="0" fill="hsl(240, 100%, 100%)"/><path d="M-130.875 42.75 C-74.67896825627133 42.75, -18.48293651254265 42.75, 130.875 42.75 M-130.875 42.75 C-62.093706671153484 42.75, 6.687586657693032 42.75, 130.875 42.75 M130.875 42.75 C130.875 54.60707241310712, 130.875 66.46414482621424, 130.875 85.5 M130.875 42.75 C130.875 54.16787283349241, 130.875 65.58574566698482, 130.875 85.5 M130.875 85.5 C38.90693563879164 85.5, -53.061128722416726 85.5, -130.875 85.5 M130.875 85.5 C34.812168781744774 85.5, -61.25066243651045 85.5, -130.875 85.5 M-130.875 85.5 C-130.875 71.79115267909452, -130.875 58.08230535818903, -130.875 42.75 M-130.875 85.5 C-130.875 70.31460839890832, -130.875 55.12921679781665, -130.875 42.75" stroke="#9370DB" stroke-width="1.3" fill="none" stroke-dasharray="0 0"/></g><g class="label name" transform="translate(-70.703125, -76.125)" style=""><foreignObject width="141.40625" height="24"><div xmlns="http://www.w3.org/1999/xhtml" style="display: table-cell; white-space: nowrap; line-height: 1.5; max-width: 241px; text-align: start;"><span class="nodeLabel"><p>assistant_first_seen</p></span></div></foreignObject></g><g class="label attribute-type" transform="translate(-118.375, -33.375)" style=""><foreignObject width="39.125" height="24"><div xmlns="http://www.w3.org/1999/xhtml" style="display: table-cell; white-space: nowrap; line-height: 1.5; max-width: 136px; text-align: start;"><span class="nodeLabel"><p>string</p></span></div></foreignObject></g><g class="label attribute-name" transform="translate(-19.578125, -33.375)" style=""><foreignObject width="65.828125" height="24"><div xmlns="http://www.w3.org/1999/xhtml" style="display: table-cell; white-space: nowrap; line-height: 1.5; max-width: 166px; text-align: start;"><span class="nodeLabel"><p>user_sub</p></span></div></foreignObject></g><g class="label attribute-keys" transform="translate(97.03125, -33.375)" style=""><foreignObject width="21.34375" height="24"><div xmlns="http://www.w3.org/1999/xhtml" style="display: table-cell; white-space: nowrap; line-height: 1.5; max-width: 121px; text-align: start;"><span class="nodeLabel"><p>PK</p></span></div></foreignObject></g><g class="label attribute-comment" transform="translate(143.375, -33.375)" style=""><foreignObject width="0" height="0"><div xmlns="http://www.w3.org/1999/xhtml" style="display: table-cell; white-space: nowrap; line-height: 1.5; max-width: 100px; text-align: start;"><span class="nodeLabel"></span></div></foreignObject></g><g class="label attribute-type" transform="translate(-118.375, 9.375)" style=""><foreignObject width="39.125" height="24"><div xmlns="http://www.w3.org/1999/xhtml" style="display: table-cell; white-space: nowrap; line-height: 1.5; max-width: 136px; text-align: start;"><span class="nodeLabel"><p>string</p></span></div></foreignObject></g><g class="label attribute-name" transform="translate(-19.578125, 9.375)" style=""><foreignObject width="43.578125" height="24"><div xmlns="http://www.w3.org/1999/xhtml" style="display: table-cell; white-space: nowrap; line-height: 1.5; max-width: 143px; text-align: start;"><span class="nodeLabel"><p>profile</p></span></div></foreignObject></g><g class="label attribute-keys" transform="translate(97.03125, 9.375)" style=""><foreignObject width="21.34375" height="24"><div xmlns="http://www.w3.org/1999/xhtml" style="display: table-cell; white-space: nowrap; line-height: 1.5; max-width: 121px; text-align: start;"><span class="nodeLabel"><p>PK</p></span></div></foreignObject></g><g class="label attribute-comment" transform="translate(143.375, 9.375)" style=""><foreignObject width="0" height="0"><div xmlns="http://www.w3.org/1999/xhtml" style="display: table-cell; white-space: nowrap; line-height: 1.5; max-width: 100px; text-align: start;"><span class="nodeLabel"></span></div></foreignObject></g><g class="label attribute-type" transform="translate(-118.375, 52.125)" style=""><foreignObject width="73.796875" height="24"><div xmlns="http://www.w3.org/1999/xhtml" style="display: table-cell; white-space: nowrap; line-height: 1.5; max-width: 167px; text-align: start;"><span class="nodeLabel"><p>timestamp</p></span></div></foreignObject></g><g class="label attribute-name" transform="translate(-19.578125, 52.125)" style=""><foreignObject width="91.609375" height="24"><div xmlns="http://www.w3.org/1999/xhtml" style="display: table-cell; white-space: nowrap; line-height: 1.5; max-width: 192px; text-align: start;"><span class="nodeLabel"><p>first_seen_at</p></span></div></foreignObject></g><g class="label attribute-keys" transform="translate(97.03125, 52.125)" style=""><foreignObject width="0" height="0"><div xmlns="http://www.w3.org/1999/xhtml" style="display: table-cell; white-space: nowrap; line-height: 1.5; max-width: 100px; text-align: start;"><span class="nodeLabel"></span></div></foreignObject></g><g class="label attribute-comment" transform="translate(143.375, 52.125)" style=""><foreignObject width="0" height="0"><div xmlns="http://www.w3.org/1999/xhtml" style="display: table-cell; white-space: nowrap; line-height: 1.5; max-width: 100px; text-align: start;"><span class="nodeLabel"></span></div></foreignObject></g><g class="divider"><path d="M-130.875 -42.75005 L-130.875 -42.74995 L130.875 -42.74995 L130.875 -42.75005" stroke="none" stroke-width="0" fill="#ECECFF" fill-rule="evenodd"/><path d="M-130.875 -42.75005 C-130.875 -42.75002337739829, -130.875 -42.74999675479659, -130.875 -42.74995 M-130.875 -42.75005 C-130.875 -42.75001145311322, -130.875 -42.74997290622643, -130.875 -42.74995 M-130.875 -42.74995 C-58.85680080385143 -42.74995, 13.161398392297144 -42.74995, 130.875 -42.74995 M-130.875 -42.74995 C-44.39382699745947 -42.74995, 42.08734600508106 -42.74995, 130.875 -42.74995 M130.875 -42.74995 C130.875 -42.74997104436961, 130.875 -42.74999208873922, 130.875 -42.75005 M130.875 -42.74995 C130.875 -42.74997439916548, 130.875 -42.749998798330964, 130.875 -42.75005 M130.875 -42.75005 C35.3563681145821 -42.75005, -60.16226377083581 -42.75005, -130.875 -42.75005 M130.875 -42.75005 C31.834992288666655 -42.75005, -67.20501542266669 -42.75005, -130.875 -42.75005" stroke="#9370DB" stroke-width="1.3" fill="none" stroke-dasharray="0 0"/></g><g class="divider"><path d="M-32.078175 -42.75 L-32.078075 -42.75 L-32.078075 85.5 L-32.078175 85.5" stroke="none" stroke-width="0" fill="#ECECFF" fill-rule="evenodd"/><path d="M-32.078175 -42.75 C-32.078144319868315 -42.75, -32.07811363973663 -42.75, -32.078075 -42.75 M-32.078175 -42.75 C-32.07813615053182 -42.75, -32.078097301063636 -42.75, -32.078075 -42.75 M-32.078075 -42.75 C-32.078075 -10.507697453278922, -32.078075 21.734605093442156, -32.078075 85.5 M-32.078075 -42.75 C-32.078075 8.322351108451286, -32.078075 59.39470221690257, -32.078075 85.5 M-32.078075 85.5 C-32.07809534633003 85.5, -32.07811569266006 85.5, -32.078175 85.5 M-32.078075 85.5 C-32.07810067101058 85.5, -32.07812634202116 85.5, -32.078175 85.5 M-32.078175 85.5 C-32.078175 49.26062655269057, -32.078175 13.021253105381135, -32.078175 -42.75 M-32.078175 85.5 C-32.078175 36.63055414488375, -32.078175 -12.238891710232494, -32.078175 -42.75" stroke="#9370DB" stroke-width="1.3" fill="none" stroke-dasharray="0 0"/></g><g class="divider"><path d="M84.5312 -42.75 L84.5313 -42.75 L84.5313 85.5 L84.5312 85.5" stroke="none" stroke-width="0" fill="#ECECFF" fill-rule="evenodd"/><path d="M84.5312 -42.75 C84.53123710157169 -42.75, 84.53127420314338 -42.75, 84.5313 -42.75 M84.5312 -42.75 C84.53122631086195 -42.75, 84.53125262172391 -42.75, 84.5313 -42.75 M84.5313 -42.75 C84.5313 8.507632010123636, 84.5313 59.76526402024727, 84.5313 85.5 M84.5313 -42.75 C84.5313 -9.425849100825985, 84.5313 23.89830179834803, 84.5313 85.5 M84.5313 85.5 C84.53127708684553 85.5, 84.53125417369107 85.5, 84.5312 85.5 M84.5313 85.5 C84.53127109576211 85.5, 84.5312421915242 85.5, 84.5312 85.5 M84.5312 85.5 C84.5312 43.197154949008414, 84.5312 0.8943098980168287, 84.5312 -42.75 M84.5312 85.5 C84.5312 41.16095616995074, 84.5312 -3.1780876600985266, 84.5312 -42.75" stroke="#9370DB" stroke-width="1.3" fill="none" stroke-dasharray="0 0"/></g><g class="divider"><path d="M-130.875 -42.75005 L-130.875 -42.74995 L130.875 -42.74995 L130.875 -42.75005" stroke="none" stroke-width="0" fill="#ECECFF" fill-rule="evenodd"/><path d="M-130.875 -42.75005 C-130.875 -42.750027220214456, -130.875 -42.75000444042892, -130.875 -42.74995 M-130.875 -42.75005 C-130.875 -42.75001647815315, -130.875 -42.7499829563063, -130.875 -42.74995 M-130.875 -42.74995 C-60.33736971958608 -42.74995, 10.200260560827843 -42.74995, 130.875 -42.74995 M-130.875 -42.74995 C-70.97562486688014 -42.74995, -11.076249733760278 -42.74995, 130.875 -42.74995 M130.875 -42.74995 C130.875 -42.749979375951014, 130.875 -42.75000875190202, 130.875 -42.75005 M130.875 -42.74995 C130.875 -42.74998825109558, 130.875 -42.75002650219116, 130.875 -42.75005 M130.875 -42.75005 C65.9568803101708 -42.75005, 1.0387606203416055 -42.75005, -130.875 -42.75005 M130.875 -42.75005 C52.42265876008122 -42.75005, -26.02968247983756 -42.75005, -130.875 -42.75005" stroke="#9370DB" stroke-width="1.3" fill="none" stroke-dasharray="0 0"/></g></g><g class="node default" id="my-svg-entity-assistant_messages-2" data-look="classic" transform="translate(152.2265625, 494.125)"><g class="outer-path" style=""><path d="M-144.2265625 -149.625 L144.2265625 -149.625 L144.2265625 149.625 L-144.2265625 149.625" stroke="none" stroke-width="0" fill="#ECECFF"/><path d="M-144.2265625 -149.625 C-82.40494890546495 -149.625, -20.583335310929897 -149.625, 144.2265625 -149.625 M-144.2265625 -149.625 C-71.81819672053678 -149.625, 0.590169058926449 -149.625, 144.2265625 -149.625 M144.2265625 -149.625 C144.2265625 -41.88828988306847, 144.2265625 65.84842023386307, 144.2265625 149.625 M144.2265625 -149.625 C144.2265625 -51.42879092408597, 144.2265625 46.76741815182805, 144.2265625 149.625 M144.2265625 149.625 C58.48715423456407 149.625, -27.252254030871853 149.625, -144.2265625 149.625 M144.2265625 149.625 C36.607533592268055 149.625, -71.01149531546389 149.625, -144.2265625 149.625 M-144.2265625 149.625 C-144.2265625 45.348865629347884, -144.2265625 -58.92726874130423, -144.2265625 -149.625 M-144.2265625 149.625 C-144.2265625 85.4939814072453, -144.2265625 21.3629628144906, -144.2265625 -149.625" stroke="#9370DB" stroke-width="1.3" fill="none" stroke-dasharray="0 0"/></g><g style="" class="row-rect-odd"><path d="M-144.2265625 -106.875 L144.2265625 -106.875 L144.2265625 -64.125 L-144.2265625 -64.125" stroke="none" stroke-width="0" fill="hsl(240, 100%, 100%)"/><path d="M-144.2265625 -106.875 C-38.16453012632731 -106.875, 67.89750224734539 -106.875, 144.2265625 -106.875 M-144.2265625 -106.875 C-39.80107778765698 -106.875, 64.62440692468604 -106.875, 144.2265625 -106.875 M144.2265625 -106.875 C144.2265625 -97.85643156638167, 144.2265625 -88.83786313276335, 144.2265625 -64.125 M144.2265625 -106.875 C144.2265625 -90.12271686302313, 144.2265625 -73.37043372604624, 144.2265625 -64.125 M144.2265625 -64.125 C46.555962304630015 -64.125, -51.11463789073997 -64.125, -144.2265625 -64.125 M144.2265625 -64.125 C58.721387711046745 -64.125, -26.78378707790651 -64.125, -144.2265625 -64.125 M-144.2265625 -64.125 C-144.2265625 -77.65216030173023, -144.2265625 -91.17932060346048, -144.2265625 -106.875 M-144.2265625 -64.125 C-144.2265625 -76.278952968983, -144.2265625 -88.43290593796601, -144.2265625 -106.875" stroke="#9370DB" stroke-width="1.3" fill="none" stroke-dasharray="0 0"/></g><g style="" class="row-rect-even"><path d="M-144.2265625 -64.125 L144.2265625 -64.125 L144.2265625 -21.375 L-144.2265625 -21.375" stroke="none" stroke-width="0" fill="hsl(240, 100%, 97.2745098039%)"/><path d="M-144.2265625 -64.125 C-31.10276345164911 -64.125, 82.02103559670178 -64.125, 144.2265625 -64.125 M-144.2265625 -64.125 C-53.90512321294679 -64.125, 36.41631607410642 -64.125, 144.2265625 -64.125 M144.2265625 -64.125 C144.2265625 -47.04105285543641, 144.2265625 -29.957105710872824, 144.2265625 -21.375 M144.2265625 -64.125 C144.2265625 -48.29790461957899, 144.2265625 -32.47080923915799, 144.2265625 -21.375 M144.2265625 -21.375 C30.677586320669405 -21.375, -82.87138985866119 -21.375, -144.2265625 -21.375 M144.2265625 -21.375 C68.65802479055321 -21.375, -6.910512918893573 -21.375, -144.2265625 -21.375 M-144.2265625 -21.375 C-144.2265625 -36.05655487947427, -144.2265625 -50.73810975894854, -144.2265625 -64.125 M-144.2265625 -21.375 C-144.2265625 -31.063620548372363, -144.2265625 -40.752241096744726, -144.2265625 -64.125" stroke="#9370DB" stroke-width="1.3" fill="none" stroke-dasharray="0 0"/></g><g style="" class="row-rect-odd"><path d="M-144.2265625 -21.375 L144.2265625 -21.375 L144.2265625 21.375 L-144.2265625 21.375" stroke="none" stroke-width="0" fill="hsl(240, 100%, 100%)"/><path d="M-144.2265625 -21.375 C-47.711006890777114 -21.375, 48.80454871844577 -21.375, 144.2265625 -21.375 M-144.2265625 -21.375 C-61.30911599420803 -21.375, 21.608330511583944 -21.375, 144.2265625 -21.375 M144.2265625 -21.375 C144.2265625 -4.389639531505821, 144.2265625 12.595720936988357, 144.2265625 21.375 M144.2265625 -21.375 C144.2265625 -4.383533866865829, 144.2265625 12.607932266268342, 144.2265625 21.375 M144.2265625 21.375 C43.61480014459737 21.375, -56.996962210805265 21.375, -144.2265625 21.375 M144.2265625 21.375 C57.87620091559286 21.375, -28.474160668814278 21.375, -144.2265625 21.375 M-144.2265625 21.375 C-144.2265625 5.618508926159347, -144.2265625 -10.137982147681306, -144.2265625 -21.375 M-144.2265625 21.375 C-144.2265625 4.9655521770510695, -144.2265625 -11.443895645897861, -144.2265625 -21.375" stroke="#9370DB" stroke-width="1.3" fill="none" stroke-dasharray="0 0"/></g><g style="" class="row-rect-even"><path d="M-144.2265625 21.375 L144.2265625 21.375 L144.2265625 64.125 L-144.2265625 64.125" stroke="none" stroke-width="0" fill="hsl(240, 100%, 97.2745098039%)"/><path d="M-144.2265625 21.375 C-39.31384977768714 21.375, 65.59886294462572 21.375, 144.2265625 21.375 M-144.2265625 21.375 C-73.16464389847765 21.375, -2.102725296955299 21.375, 144.2265625 21.375 M144.2265625 21.375 C144.2265625 32.252137796902886, 144.2265625 43.129275593805765, 144.2265625 64.125 M144.2265625 21.375 C144.2265625 35.06428502625579, 144.2265625 48.75357005251158, 144.2265625 64.125 M144.2265625 64.125 C30.112185732340095 64.125, -84.00219103531981 64.125, -144.2265625 64.125 M144.2265625 64.125 C82.98459211596942 64.125, 21.74262173193884 64.125, -144.2265625 64.125 M-144.2265625 64.125 C-144.2265625 52.09985336810245, -144.2265625 40.0747067362049, -144.2265625 21.375 M-144.2265625 64.125 C-144.2265625 47.856217334813955, -144.2265625 31.58743466962791, -144.2265625 21.375" stroke="#9370DB" stroke-width="1.3" fill="none" stroke-dasharray="0 0"/></g><g style="" class="row-rect-odd"><path d="M-144.2265625 64.125 L144.2265625 64.125 L144.2265625 106.875 L-144.2265625 106.875" stroke="none" stroke-width="0" fill="hsl(240, 100%, 100%)"/><path d="M-144.2265625 64.125 C-80.06396963659967 64.125, -15.901376773199331 64.125, 144.2265625 64.125 M-144.2265625 64.125 C-33.31664669391975 64.125, 77.5932691121605 64.125, 144.2265625 64.125 M144.2265625 64.125 C144.2265625 78.41147443787024, 144.2265625 92.69794887574048, 144.2265625 106.875 M144.2265625 64.125 C144.2265625 80.41313421655327, 144.2265625 96.70126843310655, 144.2265625 106.875 M144.2265625 106.875 C70.16610938130506 106.875, -3.8943437373898746 106.875, -144.2265625 106.875 M144.2265625 106.875 C52.25038887992113 106.875, -39.725784740157735 106.875, -144.2265625 106.875 M-144.2265625 106.875 C-144.2265625 95.2287944728525, -144.2265625 83.582588945705, -144.2265625 64.125 M-144.2265625 106.875 C-144.2265625 96.34927941262907, -144.2265625 85.82355882525815, -144.2265625 64.125" stroke="#9370DB" stroke-width="1.3" fill="none" stroke-dasharray="0 0"/></g><g style="" class="row-rect-even"><path d="M-144.2265625 106.875 L144.2265625 106.875 L144.2265625 149.625 L-144.2265625 149.625" stroke="none" stroke-width="0" fill="hsl(240, 100%, 97.2745098039%)"/><path d="M-144.2265625 106.875 C-62.21055405198152 106.875, 19.805454396036964 106.875, 144.2265625 106.875 M-144.2265625 106.875 C-62.42738516206282 106.875, 19.37179217587436 106.875, 144.2265625 106.875 M144.2265625 106.875 C144.2265625 122.00158455706396, 144.2265625 137.12816911412793, 144.2265625 149.625 M144.2265625 106.875 C144.2265625 123.55348696540707, 144.2265625 140.23197393081415, 144.2265625 149.625 M144.2265625 149.625 C41.2346624183492 149.625, -61.757237663301595 149.625, -144.2265625 149.625 M144.2265625 149.625 C83.96218965777038 149.625, 23.69781681554076 149.625, -144.2265625 149.625 M-144.2265625 149.625 C-144.2265625 138.58872579306737, -144.2265625 127.55245158613477, -144.2265625 106.875 M-144.2265625 149.625 C-144.2265625 133.5214264769743, -144.2265625 117.41785295394861, -144.2265625 106.875" stroke="#9370DB" stroke-width="1.3" fill="none" stroke-dasharray="0 0"/></g><g class="label name" transform="translate(-72.484375, -140.25)" style=""><foreignObject width="144.96875" height="24"><div xmlns="http://www.w3.org/1999/xhtml" style="display: table-cell; white-space: nowrap; line-height: 1.5; max-width: 223px; text-align: start;"><span class="nodeLabel"><p>assistant_messages</p></span></div></foreignObject></g><g class="label attribute-type" transform="translate(-131.7265625, -97.5)" style=""><foreignObject width="30.25" height="24"><div xmlns="http://www.w3.org/1999/xhtml" style="display: table-cell; white-space: nowrap; line-height: 1.5; max-width: 128px; text-align: start;"><span class="nodeLabel"><p>uuid</p></span></div></foreignObject></g><g class="label attribute-name" transform="translate(-32.9296875, -97.5)" style=""><foreignObject width="12.453125" height="24"><div xmlns="http://www.w3.org/1999/xhtml" style="display: table-cell; white-space: nowrap; line-height: 1.5; max-width: 112px; text-align: start;"><span class="nodeLabel"><p>id</p></span></div></foreignObject></g><g class="label attribute-keys" transform="translate(110.3828125, -97.5)" style=""><foreignObject width="21.34375" height="24"><div xmlns="http://www.w3.org/1999/xhtml" style="display: table-cell; white-space: nowrap; line-height: 1.5; max-width: 121px; text-align: start;"><span class="nodeLabel"><p>PK</p></span></div></foreignObject></g><g class="label attribute-comment" transform="translate(156.7265625, -97.5)" style=""><foreignObject width="0" height="0"><div xmlns="http://www.w3.org/1999/xhtml" style="display: table-cell; white-space: nowrap; line-height: 1.5; max-width: 100px; text-align: start;"><span class="nodeLabel"></span></div></foreignObject></g><g class="label attribute-type" transform="translate(-131.7265625, -54.75)" style=""><foreignObject width="30.25" height="24"><div xmlns="http://www.w3.org/1999/xhtml" style="display: table-cell; white-space: nowrap; line-height: 1.5; max-width: 128px; text-align: start;"><span class="nodeLabel"><p>uuid</p></span></div></foreignObject></g><g class="label attribute-name" transform="translate(-32.9296875, -54.75)" style=""><foreignObject width="112.078125" height="24"><div xmlns="http://www.w3.org/1999/xhtml" style="display: table-cell; white-space: nowrap; line-height: 1.5; max-width: 212px; text-align: start;"><span class="nodeLabel"><p>conversation_id</p></span></div></foreignObject></g><g class="label attribute-keys" transform="translate(110.3828125, -54.75)" style=""><foreignObject width="20.453125" height="24"><div xmlns="http://www.w3.org/1999/xhtml" style="display: table-cell; white-space: nowrap; line-height: 1.5; max-width: 121px; text-align: start;"><span class="nodeLabel"><p>FK</p></span></div></foreignObject></g><g class="label attribute-comment" transform="translate(156.7265625, -54.75)" style=""><foreignObject width="0" height="0"><div xmlns="http://www.w3.org/1999/xhtml" style="display: table-cell; white-space: nowrap; line-height: 1.5; max-width: 100px; text-align: start;"><span class="nodeLabel"></span></div></foreignObject></g><g class="label attribute-type" transform="translate(-131.7265625, -12)" style=""><foreignObject width="39.125" height="24"><div xmlns="http://www.w3.org/1999/xhtml" style="display: table-cell; white-space: nowrap; line-height: 1.5; max-width: 136px; text-align: start;"><span class="nodeLabel"><p>string</p></span></div></foreignObject></g><g class="label attribute-name" transform="translate(-32.9296875, -12)" style=""><foreignObject width="26.6875" height="24"><div xmlns="http://www.w3.org/1999/xhtml" style="display: table-cell; white-space: nowrap; line-height: 1.5; max-width: 125px; text-align: start;"><span class="nodeLabel"><p>role</p></span></div></foreignObject></g><g class="label attribute-keys" transform="translate(110.3828125, -12)" style=""><foreignObject width="0" height="0"><div xmlns="http://www.w3.org/1999/xhtml" style="display: table-cell; white-space: nowrap; line-height: 1.5; max-width: 100px; text-align: start;"><span class="nodeLabel"></span></div></foreignObject></g><g class="label attribute-comment" transform="translate(156.7265625, -12)" style=""><foreignObject width="0" height="0"><div xmlns="http://www.w3.org/1999/xhtml" style="display: table-cell; white-space: nowrap; line-height: 1.5; max-width: 100px; text-align: start;"><span class="nodeLabel"></span></div></foreignObject></g><g class="label attribute-type" transform="translate(-131.7265625, 30.75)" style=""><foreignObject width="39.125" height="24"><div xmlns="http://www.w3.org/1999/xhtml" style="display: table-cell; white-space: nowrap; line-height: 1.5; max-width: 136px; text-align: start;"><span class="nodeLabel"><p>string</p></span></div></foreignObject></g><g class="label attribute-name" transform="translate(-32.9296875, 30.75)" style=""><foreignObject width="52.484375" height="24"><div xmlns="http://www.w3.org/1999/xhtml" style="display: table-cell; white-space: nowrap; line-height: 1.5; max-width: 148px; text-align: start;"><span class="nodeLabel"><p>content</p></span></div></foreignObject></g><g class="label attribute-keys" transform="translate(110.3828125, 30.75)" style=""><foreignObject width="0" height="0"><div xmlns="http://www.w3.org/1999/xhtml" style="display: table-cell; white-space: nowrap; line-height: 1.5; max-width: 100px; text-align: start;"><span class="nodeLabel"></span></div></foreignObject></g><g class="label attribute-comment" transform="translate(156.7265625, 30.75)" style=""><foreignObject width="0" height="0"><div xmlns="http://www.w3.org/1999/xhtml" style="display: table-cell; white-space: nowrap; line-height: 1.5; max-width: 100px; text-align: start;"><span class="nodeLabel"></span></div></foreignObject></g><g class="label attribute-type" transform="translate(-131.7265625, 73.5)" style=""><foreignObject width="38.25" height="24"><div xmlns="http://www.w3.org/1999/xhtml" style="display: table-cell; white-space: nowrap; line-height: 1.5; max-width: 136px; text-align: start;"><span class="nodeLabel"><p>jsonb</p></span></div></foreignObject></g><g class="label attribute-name" transform="translate(-32.9296875, 73.5)" style=""><foreignObject width="118.3125" height="24"><div xmlns="http://www.w3.org/1999/xhtml" style="display: table-cell; white-space: nowrap; line-height: 1.5; max-width: 206px; text-align: start;"><span class="nodeLabel"><p>proposed_action</p></span></div></foreignObject></g><g class="label attribute-keys" transform="translate(110.3828125, 73.5)" style=""><foreignObject width="0" height="0"><div xmlns="http://www.w3.org/1999/xhtml" style="display: table-cell; white-space: nowrap; line-height: 1.5; max-width: 100px; text-align: start;"><span class="nodeLabel"></span></div></foreignObject></g><g class="label attribute-comment" transform="translate(156.7265625, 73.5)" style=""><foreignObject width="0" height="0"><div xmlns="http://www.w3.org/1999/xhtml" style="display: table-cell; white-space: nowrap; line-height: 1.5; max-width: 100px; text-align: start;"><span class="nodeLabel"></span></div></foreignObject></g><g class="label attribute-type" transform="translate(-131.7265625, 116.25)" style=""><foreignObject width="73.796875" height="24"><div xmlns="http://www.w3.org/1999/xhtml" style="display: table-cell; white-space: nowrap; line-height: 1.5; max-width: 167px; text-align: start;"><span class="nodeLabel"><p>timestamp</p></span></div></foreignObject></g><g class="label attribute-name" transform="translate(-32.9296875, 116.25)" style=""><foreignObject width="75.609375" height="24"><div xmlns="http://www.w3.org/1999/xhtml" style="display: table-cell; white-space: nowrap; line-height: 1.5; max-width: 176px; text-align: start;"><span class="nodeLabel"><p>created_at</p></span></div></foreignObject></g><g class="label attribute-keys" transform="translate(110.3828125, 116.25)" style=""><foreignObject width="0" height="0"><div xmlns="http://www.w3.org/1999/xhtml" style="display: table-cell; white-space: nowrap; line-height: 1.5; max-width: 100px; text-align: start;"><span class="nodeLabel"></span></div></foreignObject></g><g class="label attribute-comment" transform="translate(156.7265625, 116.25)" style=""><foreignObject width="0" height="0"><div xmlns="http://www.w3.org/1999/xhtml" style="display: table-cell; white-space: nowrap; line-height: 1.5; max-width: 100px; text-align: start;"><span class="nodeLabel"></span></div></foreignObject></g><g class="divider"><path d="M-144.2265625 -106.87505 L-144.2265625 -106.87495 L144.2265625 -106.87495 L144.2265625 -106.87505" stroke="none" stroke-width="0" fill="#ECECFF" fill-rule="evenodd"/><path d="M-144.2265625 -106.87505 C-144.2265625 -106.8750294138241, -144.2265625 -106.87500882764819, -144.2265625 -106.87495 M-144.2265625 -106.87505 C-144.2265625 -106.87501205687379, -144.2265625 -106.87497411374757, -144.2265625 -106.87495 M-144.2265625 -106.87495 C-37.60232125784803 -106.87495, 69.02191998430393 -106.87495, 144.2265625 -106.87495 M-144.2265625 -106.87495 C-58.035692056271884 -106.87495, 28.155178387456232 -106.87495, 144.2265625 -106.87495 M144.2265625 -106.87495 C144.2265625 -106.87497698919645, 144.2265625 -106.8750039783929, 144.2265625 -106.87505 M144.2265625 -106.87495 C144.2265625 -106.87497315827054, 144.2265625 -106.87499631654107, 144.2265625 -106.87505 M144.2265625 -106.87505 C76.59518472127219 -106.87505, 8.96380694254438 -106.87505, -144.2265625 -106.87505 M144.2265625 -106.87505 C71.90494615609548 -106.87505, -0.4166701878090464 -106.87505, -144.2265625 -106.87505" stroke="#9370DB" stroke-width="1.3" fill="none" stroke-dasharray="0 0"/></g><g class="divider"><path d="M-45.4297375 -106.875 L-45.4296375 -106.875 L-45.4296375 149.625 L-45.4297375 149.625" stroke="none" stroke-width="0" fill="#ECECFF" fill-rule="evenodd"/><path d="M-45.4297375 -106.875 C-45.42969962269777 -106.875, -45.42966174539553 -106.875, -45.4296375 -106.875 M-45.4297375 -106.875 C-45.42971015221082 -106.875, -45.42968280442165 -106.875, -45.4296375 -106.875 M-45.4296375 -106.875 C-45.4296375 -24.356367360168704, -45.4296375 58.16226527966259, -45.4296375 149.625 M-45.4296375 -106.875 C-45.4296375 -17.12275559367484, -45.4296375 72.62948881265032, -45.4296375 149.625 M-45.4296375 149.625 C-45.42966088311303 149.625, -45.429684266226054 149.625, -45.4297375 149.625 M-45.4296375 149.625 C-45.429659129666156 149.625, -45.429680759332314 149.625, -45.4297375 149.625 M-45.4297375 149.625 C-45.4297375 94.61712331665049, -45.4297375 39.60924663330097, -45.4297375 -106.875 M-45.4297375 149.625 C-45.4297375 71.79376105971521, -45.4297375 -6.037477880569583, -45.4297375 -106.875" stroke="#9370DB" stroke-width="1.3" fill="none" stroke-dasharray="0 0"/></g><g class="divider"><path d="M97.8827625 -106.875 L97.8828625 -106.875 L97.8828625 149.625 L97.8827625 149.625" stroke="none" stroke-width="0" fill="#ECECFF" fill-rule="evenodd"/><path d="M97.8827625 -106.875 C97.88279678770023 -106.875, 97.88283107540047 -106.875, 97.8828625 -106.875 M97.8827625 -106.875 C97.88279249247465 -106.875, 97.88282248494932 -106.875, 97.8828625 -106.875 M97.8828625 -106.875 C97.8828625 -53.093120033599895, 97.8828625 0.6887599328002096, 97.8828625 149.625 M97.8828625 -106.875 C97.8828625 -33.83781550296642, 97.8828625 39.19936899406716, 97.8828625 149.625 M97.8828625 149.625 C97.88283589135777 149.625, 97.88280928271554 149.625, 97.8827625 149.625 M97.8828625 149.625 C97.88282602514096 149.625, 97.88278955028193 149.625, 97.8827625 149.625 M97.8827625 149.625 C97.8827625 68.97728542315248, 97.8827625 -11.67042915369504, 97.8827625 -106.875 M97.8827625 149.625 C97.8827625 59.55748251671625, 97.8827625 -30.510034966567503, 97.8827625 -106.875" stroke="#9370DB" stroke-width="1.3" fill="none" stroke-dasharray="0 0"/></g><g class="divider"><path d="M-144.2265625 -106.87505 L-144.2265625 -106.87495 L144.2265625 -106.87495 L144.2265625 -106.87505" stroke="none" stroke-width="0" fill="#ECECFF" fill-rule="evenodd"/><path d="M-144.2265625 -106.87505 C-144.2265625 -106.87501978276266, -144.2265625 -106.87498956552533, -144.2265625 -106.87495 M-144.2265625 -106.87505 C-144.2265625 -106.8750211238833, -144.2265625 -106.87499224776661, -144.2265625 -106.87495 M-144.2265625 -106.87495 C-41.72954639903162 -106.87495, 60.76746970193676 -106.87495, 144.2265625 -106.87495 M-144.2265625 -106.87495 C-71.19744554589549 -106.87495, 1.8316714082090186 -106.87495, 144.2265625 -106.87495 M144.2265625 -106.87495 C144.2265625 -106.87497641074421, 144.2265625 -106.87500282148842, 144.2265625 -106.87505 M144.2265625 -106.87495 C144.2265625 -106.87498191734218, 144.2265625 -106.87501383468438, 144.2265625 -106.87505 M144.2265625 -106.87505 C30.95110011987626 -106.87505, -82.32436226024748 -106.87505, -144.2265625 -106.87505 M144.2265625 -106.87505 C71.57066957775062 -106.87505, -1.0852233444987576 -106.87505, -144.2265625 -106.87505" stroke="#9370DB" stroke-width="1.3" fill="none" stroke-dasharray="0 0"/></g></g><g class="node default" id="my-svg-entity-assistant_nudge_dismissals-3" data-look="classic" transform="translate(962.4140625, 136.25)"><g class="outer-path" style=""><path d="M-134.4453125 -85.5 L134.4453125 -85.5 L134.4453125 85.5 L-134.4453125 85.5" stroke="none" stroke-width="0" fill="#ECECFF"/><path d="M-134.4453125 -85.5 C-55.28693193168854 -85.5, 23.871448636622915 -85.5, 134.4453125 -85.5 M-134.4453125 -85.5 C-48.07355657558149 -85.5, 38.29819934883702 -85.5, 134.4453125 -85.5 M134.4453125 -85.5 C134.4453125 -28.50778858445649, 134.4453125 28.484422831087016, 134.4453125 85.5 M134.4453125 -85.5 C134.4453125 -45.73770801263287, 134.4453125 -5.975416025265744, 134.4453125 85.5 M134.4453125 85.5 C29.882821697671957 85.5, -74.67966910465609 85.5, -134.4453125 85.5 M134.4453125 85.5 C65.13558221063758 85.5, -4.174148078724841 85.5, -134.4453125 85.5 M-134.4453125 85.5 C-134.4453125 41.99405890861024, -134.4453125 -1.511882182779516, -134.4453125 -85.5 M-134.4453125 85.5 C-134.4453125 21.832865634941548, -134.4453125 -41.834268730116904, -134.4453125 -85.5" stroke="#9370DB" stroke-width="1.3" fill="none" stroke-dasharray="0 0"/></g><g style="" class="row-rect-odd"><path d="M-134.4453125 -42.75 L134.4453125 -42.75 L134.4453125 0 L-134.4453125 0" stroke="none" stroke-width="0" fill="hsl(240, 100%, 100%)"/><path d="M-134.4453125 -42.75 C-56.86035120907624 -42.75, 20.724610081847516 -42.75, 134.4453125 -42.75 M-134.4453125 -42.75 C-35.177697976204826 -42.75, 64.08991654759035 -42.75, 134.4453125 -42.75 M134.4453125 -42.75 C134.4453125 -26.298156212193874, 134.4453125 -9.846312424387747, 134.4453125 0 M134.4453125 -42.75 C134.4453125 -30.944713116672915, 134.4453125 -19.139426233345834, 134.4453125 0 M134.4453125 0 C75.31781578657606 0, 16.19031907315214 0, -134.4453125 0 M134.4453125 0 C69.55230867709282 0, 4.659304854185649 0, -134.4453125 0 M-134.4453125 0 C-134.4453125 -9.87225742409272, -134.4453125 -19.74451484818544, -134.4453125 -42.75 M-134.4453125 0 C-134.4453125 -10.032531908589636, -134.4453125 -20.065063817179272, -134.4453125 -42.75" stroke="#9370DB" stroke-width="1.3" fill="none" stroke-dasharray="0 0"/></g><g style="" class="row-rect-even"><path d="M-134.4453125 0 L134.4453125 0 L134.4453125 42.75 L-134.4453125 42.75" stroke="none" stroke-width="0" fill="hsl(240, 100%, 97.2745098039%)"/><path d="M-134.4453125 0 C-29.73122393190401 0, 74.98286463619198 0, 134.4453125 0 M-134.4453125 0 C-47.05343372104356 0, 40.33844505791288 0, 134.4453125 0 M134.4453125 0 C134.4453125 9.232473599494053, 134.4453125 18.464947198988106, 134.4453125 42.75 M134.4453125 0 C134.4453125 17.008729904496054, 134.4453125 34.01745980899211, 134.4453125 42.75 M134.4453125 42.75 C28.691838449731037 42.75, -77.06163560053793 42.75, -134.4453125 42.75 M134.4453125 42.75 C57.075794011597665 42.75, -20.29372447680467 42.75, -134.4453125 42.75 M-134.4453125 42.75 C-134.4453125 32.902949924629056, -134.4453125 23.055899849258118, -134.4453125 0 M-134.4453125 42.75 C-134.4453125 32.39981954700723, -134.4453125 22.049639094014463, -134.4453125 0" stroke="#9370DB" stroke-width="1.3" fill="none" stroke-dasharray="0 0"/></g><g style="" class="row-rect-odd"><path d="M-134.4453125 42.75 L134.4453125 42.75 L134.4453125 85.5 L-134.4453125 85.5" stroke="none" stroke-width="0" fill="hsl(240, 100%, 100%)"/><path d="M-134.4453125 42.75 C-60.869030039427 42.75, 12.707252421145995 42.75, 134.4453125 42.75 M-134.4453125 42.75 C-60.417675023180976 42.75, 13.609962453638047 42.75, 134.4453125 42.75 M134.4453125 42.75 C134.4453125 54.248671865937624, 134.4453125 65.74734373187525, 134.4453125 85.5 M134.4453125 42.75 C134.4453125 59.04674342766249, 134.4453125 75.34348685532498, 134.4453125 85.5 M134.4453125 85.5 C49.28366625736359 85.5, -35.877979985272816 85.5, -134.4453125 85.5 M134.4453125 85.5 C33.03601689484661 85.5, -68.37327871030678 85.5, -134.4453125 85.5 M-134.4453125 85.5 C-134.4453125 71.02466331733727, -134.4453125 56.54932663467453, -134.4453125 42.75 M-134.4453125 85.5 C-134.4453125 73.10159509237675, -134.4453125 60.70319018475351, -134.4453125 42.75" stroke="#9370DB" stroke-width="1.3" fill="none" stroke-dasharray="0 0"/></g><g class="label name" transform="translate(-99.609375, -76.125)" style=""><foreignObject width="199.21875" height="24"><div xmlns="http://www.w3.org/1999/xhtml" style="display: table-cell; white-space: nowrap; line-height: 1.5; max-width: 275px; text-align: start;"><span class="nodeLabel"><p>assistant_nudge_dismissals</p></span></div></foreignObject></g><g class="label attribute-type" transform="translate(-121.9453125, -33.375)" style=""><foreignObject width="39.125" height="24"><div xmlns="http://www.w3.org/1999/xhtml" style="display: table-cell; white-space: nowrap; line-height: 1.5; max-width: 136px; text-align: start;"><span class="nodeLabel"><p>string</p></span></div></foreignObject></g><g class="label attribute-name" transform="translate(-23.1484375, -33.375)" style=""><foreignObject width="65.828125" height="24"><div xmlns="http://www.w3.org/1999/xhtml" style="display: table-cell; white-space: nowrap; line-height: 1.5; max-width: 166px; text-align: start;"><span class="nodeLabel"><p>user_sub</p></span></div></foreignObject></g><g class="label attribute-keys" transform="translate(100.6015625, -33.375)" style=""><foreignObject width="21.34375" height="24"><div xmlns="http://www.w3.org/1999/xhtml" style="display: table-cell; white-space: nowrap; line-height: 1.5; max-width: 121px; text-align: start;"><span class="nodeLabel"><p>PK</p></span></div></foreignObject></g><g class="label attribute-comment" transform="translate(146.9453125, -33.375)" style=""><foreignObject width="0" height="0"><div xmlns="http://www.w3.org/1999/xhtml" style="display: table-cell; white-space: nowrap; line-height: 1.5; max-width: 100px; text-align: start;"><span class="nodeLabel"></span></div></foreignObject></g><g class="label attribute-type" transform="translate(-121.9453125, 9.375)" style=""><foreignObject width="39.125" height="24"><div xmlns="http://www.w3.org/1999/xhtml" style="display: table-cell; white-space: nowrap; line-height: 1.5; max-width: 136px; text-align: start;"><span class="nodeLabel"><p>string</p></span></div></foreignObject></g><g class="label attribute-name" transform="translate(-23.1484375, 9.375)" style=""><foreignObject width="65.84375" height="24"><div xmlns="http://www.w3.org/1999/xhtml" style="display: table-cell; white-space: nowrap; line-height: 1.5; max-width: 160px; text-align: start;"><span class="nodeLabel"><p>nudge_id</p></span></div></foreignObject></g><g class="label attribute-keys" transform="translate(100.6015625, 9.375)" style=""><foreignObject width="21.34375" height="24"><div xmlns="http://www.w3.org/1999/xhtml" style="display: table-cell; white-space: nowrap; line-height: 1.5; max-width: 121px; text-align: start;"><span class="nodeLabel"><p>PK</p></span></div></foreignObject></g><g class="label attribute-comment" transform="translate(146.9453125, 9.375)" style=""><foreignObject width="0" height="0"><div xmlns="http://www.w3.org/1999/xhtml" style="display: table-cell; white-space: nowrap; line-height: 1.5; max-width: 100px; text-align: start;"><span class="nodeLabel"></span></div></foreignObject></g><g class="label attribute-type" transform="translate(-121.9453125, 52.125)" style=""><foreignObject width="73.796875" height="24"><div xmlns="http://www.w3.org/1999/xhtml" style="display: table-cell; white-space: nowrap; line-height: 1.5; max-width: 167px; text-align: start;"><span class="nodeLabel"><p>timestamp</p></span></div></foreignObject></g><g class="label attribute-name" transform="translate(-23.1484375, 52.125)" style=""><foreignObject width="98.75" height="24"><div xmlns="http://www.w3.org/1999/xhtml" style="display: table-cell; white-space: nowrap; line-height: 1.5; max-width: 199px; text-align: start;"><span class="nodeLabel"><p>snoozed_until</p></span></div></foreignObject></g><g class="label attribute-keys" transform="translate(100.6015625, 52.125)" style=""><foreignObject width="0" height="0"><div xmlns="http://www.w3.org/1999/xhtml" style="display: table-cell; white-space: nowrap; line-height: 1.5; max-width: 100px; text-align: start;"><span class="nodeLabel"></span></div></foreignObject></g><g class="label attribute-comment" transform="translate(146.9453125, 52.125)" style=""><foreignObject width="0" height="0"><div xmlns="http://www.w3.org/1999/xhtml" style="display: table-cell; white-space: nowrap; line-height: 1.5; max-width: 100px; text-align: start;"><span class="nodeLabel"></span></div></foreignObject></g><g class="divider"><path d="M-134.4453125 -42.75005 L-134.4453125 -42.74995 L134.4453125 -42.74995 L134.4453125 -42.75005" stroke="none" stroke-width="0" fill="#ECECFF" fill-rule="evenodd"/><path d="M-134.4453125 -42.75005 C-134.4453125 -42.75001916118454, -134.4453125 -42.749988322369084, -134.4453125 -42.74995 M-134.4453125 -42.75005 C-134.4453125 -42.75001774120837, -134.4453125 -42.74998548241673, -134.4453125 -42.74995 M-134.4453125 -42.74995 C-37.58185854602425 -42.74995, 59.2815954079515 -42.74995, 134.4453125 -42.74995 M-134.4453125 -42.74995 C-50.25069439215072 -42.74995, 33.94392371569856 -42.74995, 134.4453125 -42.74995 M134.4453125 -42.74995 C134.4453125 -42.7499828172893, 134.4453125 -42.7500156345786, 134.4453125 -42.75005 M134.4453125 -42.74995 C134.4453125 -42.74998303786634, 134.4453125 -42.75001607573269, 134.4453125 -42.75005 M134.4453125 -42.75005 C68.71940352935911 -42.75005, 2.9934945587182256 -42.75005, -134.4453125 -42.75005 M134.4453125 -42.75005 C62.18170920408552 -42.75005, -10.081894091828957 -42.75005, -134.4453125 -42.75005" stroke="#9370DB" stroke-width="1.3" fill="none" stroke-dasharray="0 0"/></g><g class="divider"><path d="M-35.6484875 -42.75 L-35.6483875 -42.75 L-35.6483875 85.5 L-35.6484875 85.5" stroke="none" stroke-width="0" fill="#ECECFF" fill-rule="evenodd"/><path d="M-35.6484875 -42.75 C-35.6484596975692 -42.75, -35.648431895138394 -42.75, -35.6483875 -42.75 M-35.6484875 -42.75 C-35.648450009683295 -42.75, -35.64841251936659 -42.75, -35.6483875 -42.75 M-35.6483875 -42.75 C-35.6483875 -7.796483715829403, -35.6483875 27.157032568341194, -35.6483875 85.5 M-35.6483875 -42.75 C-35.6483875 -13.664221096147806, -35.6483875 15.421557807704389, -35.6483875 85.5 M-35.6483875 85.5 C-35.64841754113561 85.5, -35.64844758227122 85.5, -35.6484875 85.5 M-35.6483875 85.5 C-35.64842556311532 85.5, -35.64846362623064 85.5, -35.6484875 85.5 M-35.6484875 85.5 C-35.6484875 56.16061821960271, -35.6484875 26.82123643920543, -35.6484875 -42.75 M-35.6484875 85.5 C-35.6484875 52.25668467361751, -35.6484875 19.013369347235013, -35.6484875 -42.75" stroke="#9370DB" stroke-width="1.3" fill="none" stroke-dasharray="0 0"/></g><g class="divider"><path d="M88.1015125 -42.75 L88.1016125 -42.75 L88.1016125 85.5 L88.1015125 85.5" stroke="none" stroke-width="0" fill="#ECECFF" fill-rule="evenodd"/><path d="M88.1015125 -42.75 C88.10153679621581 -42.75, 88.10156109243164 -42.75, 88.1016125 -42.75 M88.1015125 -42.75 C88.10154728675748 -42.75, 88.10158207351496 -42.75, 88.1016125 -42.75 M88.1016125 -42.75 C88.1016125 0.2562873275600026, 88.1016125 43.262574655120005, 88.1016125 85.5 M88.1016125 -42.75 C88.1016125 0.8654855704251219, 88.1016125 44.480971140850244, 88.1016125 85.5 M88.1016125 85.5 C88.10159190019075 85.5, 88.10157130038151 85.5, 88.1015125 85.5 M88.1016125 85.5 C88.10157307654926 85.5, 88.10153365309851 85.5, 88.1015125 85.5 M88.1015125 85.5 C88.1015125 52.97182071278596, 88.1015125 20.443641425571926, 88.1015125 -42.75 M88.1015125 85.5 C88.1015125 50.818690523248435, 88.1015125 16.13738104649687, 88.1015125 -42.75" stroke="#9370DB" stroke-width="1.3" fill="none" stroke-dasharray="0 0"/></g><g class="divider"><path d="M-134.4453125 -42.75005 L-134.4453125 -42.74995 L134.4453125 -42.74995 L134.4453125 -42.75005" stroke="none" stroke-width="0" fill="#ECECFF" fill-rule="evenodd"/><path d="M-134.4453125 -42.75005 C-134.4453125 -42.75002113168223, -134.4453125 -42.74999226336446, -134.4453125 -42.74995 M-134.4453125 -42.75005 C-134.4453125 -42.75001868763443, -134.4453125 -42.749987375268866, -134.4453125 -42.74995 M-134.4453125 -42.74995 C-67.82606268443135 -42.74995, -1.2068128688626985 -42.74995, 134.4453125 -42.74995 M-134.4453125 -42.74995 C-76.87228009246088 -42.74995, -19.299247684921767 -42.74995, 134.4453125 -42.74995 M134.4453125 -42.74995 C134.4453125 -42.74997705768635, 134.4453125 -42.75000411537271, 134.4453125 -42.75005 M134.4453125 -42.74995 C134.4453125 -42.749972045309164, 134.4453125 -42.74999409061834, 134.4453125 -42.75005 M134.4453125 -42.75005 C50.498464676621964 -42.75005, -33.44838314675607 -42.75005, -134.4453125 -42.75005 M134.4453125 -42.75005 C54.064124094618776 -42.75005, -26.317064310762447 -42.75005, -134.4453125 -42.75005" stroke="#9370DB" stroke-width="1.3" fill="none" stroke-dasharray="0 0"/></g></g></g></g></g><defs><filter id="my-svg-drop-shadow" height="130%" width="130%"><feDropShadow dx="4" dy="4" stdDeviation="0" flood-opacity="0.06" flood-color="#000000"/></filter></defs><defs><filter id="my-svg-drop-shadow-small" height="150%" width="150%"><feDropShadow dx="2" dy="2" stdDeviation="0" flood-opacity="0.06" flood-color="#000000"/></filter></defs></svg>