<svg viewBox="0 0 240 300" xmlns="http://www.w3.org/2000/svg" class="ch-portrait">
  <defs>
    <radialGradient id="sc-bg" cx="50%" cy="80%" r="80%">
      <stop offset="0%" stop-color="#d7b06a" stop-opacity="0.15"/>
      <stop offset="100%" stop-color="#0b111c" stop-opacity="0"/>
    </radialGradient>
    <linearGradient id="sc-brass" x1="0" x2="0" y1="0" y2="1">
      <stop offset="0%" stop-color="#f0d28c"/>
      <stop offset="100%" stop-color="#8a6a2a"/>
    </linearGradient>
  </defs>
  <rect width="240" height="300" fill="#1d2736"/>
  <rect width="240" height="300" fill="url(#sc-bg)"/>
  <line x1="60" y1="0" x2="60" y2="300" stroke="rgba(255,255,255,0.12)" stroke-width="0.6"/>
  <line x1="120" y1="0" x2="120" y2="300" stroke="rgba(255,255,255,0.12)" stroke-width="0.6"/>
  <line x1="180" y1="0" x2="180" y2="300" stroke="rgba(255,255,255,0.12)" stroke-width="0.6"/>
  <line x1="0" y1="75" x2="240" y2="75" stroke="rgba(255,255,255,0.12)" stroke-width="0.6"/>
  <line x1="0" y1="150" x2="240" y2="150" stroke="rgba(255,255,255,0.12)" stroke-width="0.6"/>
  <line x1="0" y1="225" x2="240" y2="225" stroke="rgba(255,255,255,0.12)" stroke-width="0.6"/>
  <path d="M40,210 L80,210 L80,170 L130,170 L130,120 L200,120"
        stroke="url(#sc-brass)" stroke-width="4" fill="none" stroke-linecap="round" stroke-linejoin="round"/>
  <g fill="#1d2736" stroke="#f0d28c" stroke-width="2.5">
    <circle cx="40" cy="210" r="9"/>
    <circle cx="80" cy="170" r="9"/>
    <circle cx="130" cy="120" r="9"/>
    <circle cx="200" cy="120" r="11"/>
  </g>
  <circle cx="200" cy="120" r="4" fill="#f0d28c"/>
  <line x1="0" y1="240" x2="240" y2="240" stroke="rgba(255,255,255,0.12)" stroke-width="0.8"/>
  <text x="20" y="280" font-family='"Geist Mono", monospace' font-size="9" letter-spacing="2" fill="#a8c9b0" opacity="0.7">ROADMAP · 3–12 MONATE</text>
</svg>
