<svg xmlns="http://www.w3.org/2000/svg" viewBox="0 0 240 320" width="240" height="320" role="img" aria-label="Team member passive">
  <defs>
    <radialGradient id="g" cx="50%" cy="38%" r="62%">
      <stop offset="0%" stop-color="#17202e"></stop><stop offset="100%" stop-color="#0b111c"></stop>
    </radialGradient>
    <filter id="grain"><feTurbulence type="fractalNoise" baseFrequency=".9" numOctaves="2" seed="3"></feTurbulence><feColorMatrix values="0 0 0 0 0 0 0 0 0 0 0 0 0 0 0 0 0 0 .06 0"></feColorMatrix></filter>
  </defs>
  <rect x="0" y="0" width="240" height="320" fill="url(#g)"></rect>
  <rect x="0" y="0" width="240" height="320" filter="url(#grain)" opacity=".5"></rect>
  <rect x="14" y="14" width="212" height="292" fill="none" stroke="#d7b06a" stroke-opacity=".22" stroke-width="1"></rect>
  <g stroke="#d7b06a" stroke-opacity=".55" stroke-width="1" fill="none">
    <path d="M14 24 L14 14 L24 14"></path><path d="M226 24 L226 14 L216 14"></path>
    <path d="M14 296 L14 306 L24 306"></path><path d="M226 296 L226 306 L216 306"></path>
  </g>
  
  <g fill="#9fb39c" opacity=".82">
    <ellipse cx="120" cy="78" rx="20" ry="24"></ellipse>
    <path d="M88 116 Q92 104 108 102 L132 102 Q148 104 152 116 L154 192 L86 192 Z"></path>
    <rect x="74" y="118" width="14" height="74" rx="6"></rect>
    <rect x="152" y="118" width="14" height="74" rx="6"></rect>
    <rect x="94" y="192" width="20" height="78" rx="5"></rect>
    <rect x="126" y="192" width="20" height="78" rx="5"></rect>
    <ellipse cx="104" cy="274" rx="13" ry="5"></ellipse>
    <ellipse cx="136" cy="274" rx="13" ry="5"></ellipse>
  </g>
  <line x1="100" y1="148" x2="140" y2="148" stroke="#d7b06a" stroke-width="1.5" opacity=".6"></line>
  <text x="120" y="296" text-anchor="middle" font-family="Geist Mono, monospace" font-size="9" fill="#d7b06a" letter-spacing="2">TEAM · PASSIVE</text>

</svg>