<svg xmlns="http://www.w3.org/2000/svg" viewBox="0 0 1920 1080" width="1920" height="1080" role="img" aria-label="Arena HUD frame">
  <defs>
    <linearGradient id="hp-grad" x1="0" x2="1">
      <stop offset="0%" stop-color="#C8F76A"></stop>
      <stop offset="100%" stop-color="#7a8b4f"></stop>
    </linearGradient>
    <radialGradient id="hud-bg" cx="50%" cy="50%" r="70%">
      <stop offset="0%" stop-color="#1a1428" stop-opacity="0.0"></stop>
      <stop offset="80%" stop-color="#120D1C" stop-opacity="0.35"></stop>
      <stop offset="100%" stop-color="#120D1C" stop-opacity="0.65"></stop>
    </radialGradient>
  </defs>

  <rect width="1920" height="1080" fill="url(#hud-bg)"></rect>

  <g stroke="#C8F76A" stroke-width="2" fill="none" stroke-opacity="0.95">
    <path d="M30 90 L30 30 L90 30"></path>
    <path d="M1890 90 L1890 30 L1830 30"></path>
    <path d="M30 990 L30 1050 L90 1050"></path>
    <path d="M1890 990 L1890 1050 L1830 1050"></path>
  </g>
  <g stroke="#C8F76A" stroke-width="1" fill="none" stroke-opacity="0.4">
    <path d="M60 30 L1860 30"></path>
    <path d="M60 1050 L1860 1050"></path>
    <path d="M30 90 L30 990"></path>
    <path d="M1890 90 L1890 990"></path>
  </g>

  <g stroke="#C8F76A" stroke-width="1.5" fill="none">
    <circle cx="960" cy="540" r="16" opacity="0.7"></circle>
    <line x1="960" y1="514" x2="960" y2="528" opacity="0.9"></line>
    <line x1="960" y1="552" x2="960" y2="566" opacity="0.9"></line>
    <line x1="934" y1="540" x2="948" y2="540" opacity="0.9"></line>
    <line x1="972" y1="540" x2="986" y2="540" opacity="0.9"></line>
    <circle cx="960" cy="540" r="2" fill="#C8F76A"></circle>
  </g>

  <g transform="translate(70, 100)">
    <rect width="340" height="62" fill="#120D1C" fill-opacity="0.78" stroke="#C8F76A" stroke-opacity="0.45"></rect>
    <circle cx="34" cy="31" r="14" fill="none" stroke="#C8F76A" stroke-opacity="0.6"></circle>
    <text x="34" y="36" text-anchor="middle" font-family="Geist Mono, monospace" font-size="13" fill="#C8F76A">k</text>
    <text x="64" y="24" font-family="Geist Mono, monospace" font-size="10" letter-spacing="2.5" fill="#7a8b4f">PLAYER · 01</text>
    <text x="64" y="48" font-family="Geist, sans-serif" font-weight="600" font-size="20" fill="#eef1f3">korczewski</text>
    <circle cx="316" cy="31" r="5" fill="#C8F76A"></circle>
  </g>

  <g transform="translate(70, 188)">
    <text x="0" y="-6" font-family="Geist Mono, monospace" font-size="10" letter-spacing="2.5" fill="#7a8b4f">HP</text>
    <rect width="340" height="14" fill="#120D1C" fill-opacity="0.78" stroke="#C8F76A" stroke-opacity="0.35"></rect>
    <rect x="2" y="2" width="254" height="10" fill="url(#hp-grad)"></rect>
    <text x="350" y="11" font-family="Geist Mono, monospace" font-size="12" letter-spacing="1.5" fill="#C8F76A">75 / 100</text>
  </g>

  <g transform="translate(70, 230)">
    <text x="0" y="-6" font-family="Geist Mono, monospace" font-size="10" letter-spacing="2.5" fill="#7a8b4f">SHIELD</text>
    <rect width="340" height="10" fill="#120D1C" fill-opacity="0.78" stroke="#5fb8c8" stroke-opacity="0.45"></rect>
    <rect x="2" y="2" width="200" height="6" fill="#5fb8c8" opacity="0.9"></rect>
    <text x="350" y="9" font-family="Geist Mono, monospace" font-size="11" letter-spacing="1.5" fill="#5fb8c8">60 / 100</text>
  </g>

  <g transform="translate(1370, 100)">
    <rect width="480" height="62" fill="#120D1C" fill-opacity="0.78" stroke="#C8F76A" stroke-opacity="0.45"></rect>
    <text x="22" y="22" font-family="Geist Mono, monospace" font-size="10" letter-spacing="2.5" fill="#7a8b4f">ROUND · 03 / 10</text>
    <text x="22" y="50" font-family="Geist Mono, monospace" font-weight="500" font-size="26" letter-spacing="3" fill="#C8F76A">04:32</text>
    <line x1="170" y1="14" x2="170" y2="48" stroke="#C8F76A" stroke-opacity="0.25"></line>
    <text x="195" y="22" font-family="Geist Mono, monospace" font-size="10" letter-spacing="2.5" fill="#7a8b4f">SCORE</text>
    <text x="195" y="50" font-family="Geist Mono, monospace" font-weight="500" font-size="26" letter-spacing="2" fill="#eef1f3">12<tspan fill="#7a8b4f"> : </tspan><tspan fill="#cdd3d9">09</tspan></text>
    <line x1="350" y1="14" x2="350" y2="48" stroke="#C8F76A" stroke-opacity="0.25"></line>
    <text x="375" y="22" font-family="Geist Mono, monospace" font-size="10" letter-spacing="2.5" fill="#7a8b4f">PING</text>
    <text x="375" y="50" font-family="Geist Mono, monospace" font-weight="500" font-size="22" fill="#C8F76A">42<tspan fill="#7a8b4f">ms</tspan></text>
  </g>

  <g transform="translate(1620, 188)">
    <rect width="230" height="230" fill="#120D1C" fill-opacity="0.78" stroke="#C8F76A" stroke-opacity="0.4"></rect>
    <g stroke="#C8F76A" stroke-opacity="0.13" stroke-width="0.5">
      <line x1="0" y1="46" x2="230" y2="46"></line>
      <line x1="0" y1="92" x2="230" y2="92"></line>
      <line x1="0" y1="138" x2="230" y2="138"></line>
      <line x1="0" y1="184" x2="230" y2="184"></line>
      <line x1="46" y1="0" x2="46" y2="230"></line>
      <line x1="92" y1="0" x2="92" y2="230"></line>
      <line x1="138" y1="0" x2="138" y2="230"></line>
      <line x1="184" y1="0" x2="184" y2="230"></line>
    </g>
    <g fill="#C8F76A" fill-opacity="0.08" stroke="#C8F76A" stroke-opacity="0.45">
      <rect x="36" y="40" width="64" height="48"></rect>
      <rect x="130" y="58" width="68" height="40"></rect>
      <rect x="60" y="128" width="100" height="58"></rect>
      <rect x="170" y="140" width="36" height="48"></rect>
    </g>
    <circle cx="118" cy="115" r="5" fill="#C8F76A"></circle>
    <circle cx="118" cy="115" r="11" fill="none" stroke="#C8F76A" stroke-opacity="0.55"></circle>
    <circle cx="178" cy="80" r="3.5" fill="#d77a6e"></circle>
    <circle cx="80" cy="160" r="3.5" fill="#d77a6e"></circle>
    <circle cx="190" cy="170" r="3.5" fill="#d77a6e"></circle>
    <text x="8" y="14" font-family="Geist Mono, monospace" font-size="9" letter-spacing="2" fill="#7a8b4f">MAP · ARENA</text>
    <text x="222" y="14" text-anchor="end" font-family="Geist Mono, monospace" font-size="9" letter-spacing="2" fill="#C8F76A">3 ◊</text>
  </g>

  <g transform="translate(70, 880)" font-family="Geist Mono, monospace" font-size="13" letter-spacing="1.5">
    <text x="0" y="0" font-size="10" letter-spacing="2.5" fill="#7a8b4f">KILL FEED · LIVE</text>
    <text x="0" y="26"><tspan fill="#eef1f3">[01] korczewski</tspan><tspan fill="#7a8b4f"> » </tspan><tspan fill="#cdd3d9">guest_07</tspan><tspan fill="#7a8b4f">  · rifle</tspan></text>
    <text x="0" y="48"><tspan fill="#eef1f3">[02] korczewski</tspan><tspan fill="#7a8b4f"> » </tspan><tspan fill="#cdd3d9">guest_03</tspan><tspan fill="#7a8b4f">  · katana</tspan></text>
    <text x="0" y="70"><tspan fill="#cdd3d9">guest_04</tspan><tspan fill="#7a8b4f"> » </tspan><tspan fill="#cdd3d9">guest_11</tspan><tspan fill="#7a8b4f">  · fireball</tspan></text>
  </g>

  <g transform="translate(1580, 880)">
    <rect width="270" height="100" fill="#120D1C" fill-opacity="0.78" stroke="#C8F76A" stroke-opacity="0.45"></rect>
    <text x="20" y="26" font-family="Geist Mono, monospace" font-size="10" letter-spacing="2.5" fill="#7a8b4f">WEAPON · 02</text>
    <text x="20" y="62" font-family="Geist, sans-serif" font-weight="600" font-size="22" fill="#eef1f3">Rifle</text>
    <text x="250" y="62" text-anchor="end" font-family="Geist Mono, monospace" font-weight="500" font-size="26" fill="#C8F76A">24 / 90</text>
    <g transform="translate(20, 76)" font-family="Geist Mono, monospace" font-size="10" letter-spacing="1.5" fill="#7a8b4f">
      <text>[1] handgun  [2] rifle  [3] fireball  [4] club  [5] katana</text>
    </g>
  </g>

  <g transform="translate(960, 1030)" text-anchor="middle">
    <text font-family="Geist Mono, monospace" font-size="10" letter-spacing="3.5" fill="#7a8b4f">ARENA-WS.KORCZEWSKI.DE · WSS · COORDINATE-AUDIO ENABLED</text>
  </g>
</svg>