<svg xmlns="http://www.w3.org/2000/svg" style="display:none" aria-hidden="true">
  <!--
    Mentolder service icon sprite.
    Each symbol is 64x64, stroke=currentColor. Geometry copied from
    /brand/mentolder/props/<name>.svg. Reference via
    <svg><use href="/brand/mentolder/icons.svg#prop-name"/></svg>.
  -->
  <symbol id="prop-compass" viewBox="0 0 64 64" fill="none" stroke="currentColor" stroke-width="1.4" stroke-linecap="round" stroke-linejoin="round">
    <circle cx="32" cy="32" r="22"/>
    <circle cx="32" cy="32" r="2.2" fill="currentColor"/>
    <path d="M32 14 L36 30 L32 50 L28 30 Z" fill="currentColor" opacity="0.15"/>
    <path d="M32 14 L36 30 L32 32"/>
    <path d="M32 50 L28 30 L32 32"/>
    <path d="M32 8 L32 12 M32 52 L32 56 M8 32 L12 32 M52 32 L56 32" opacity="0.5"/>
  </symbol>
  <symbol id="prop-handshake" viewBox="0 0 64 64" fill="none" stroke="currentColor" stroke-width="1.4" stroke-linecap="round" stroke-linejoin="round">
    <path d="M6 28 L18 28 L26 36 L30 32 L40 42 L36 46 L30 40"/>
    <path d="M58 28 L46 28 L38 36"/>
    <path d="M30 32 L36 26 L42 32"/>
    <path d="M14 24 L20 22 L26 26 M50 24 L44 22 L38 26" opacity="0.7"/>
  </symbol>
  <symbol id="prop-briefcase" viewBox="0 0 64 64" fill="none" stroke="currentColor" stroke-width="1.4" stroke-linecap="round" stroke-linejoin="round">
    <rect x="10" y="20" width="44" height="32" rx="3"/>
    <path d="M24 20 L24 14 Q24 12 26 12 L38 12 Q40 12 40 14 L40 20"/>
    <line x1="10" y1="34" x2="54" y2="34"/>
    <rect x="28" y="32" width="8" height="4" rx="1" fill="currentColor" opacity="0.15"/>
  </symbol>
  <symbol id="prop-bookmark" viewBox="0 0 64 64" fill="none" stroke="currentColor" stroke-width="1.4" stroke-linecap="round" stroke-linejoin="round">
    <path d="M16 10 L48 10 Q50 10 50 12 L50 54 L32 44 L14 54 L14 12 Q14 10 16 10 Z" fill="currentColor" fill-opacity="0.08"/>
    <path d="M22 22 L42 22 M22 30 L36 30" opacity="0.7"/>
  </symbol>
  <symbol id="prop-chat" viewBox="0 0 64 64" fill="none" stroke="currentColor" stroke-width="1.4" stroke-linecap="round" stroke-linejoin="round">
    <path d="M10 16 Q10 12 14 12 L46 12 Q50 12 50 16 L50 36 Q50 40 46 40 L26 40 L18 48 L18 40 L14 40 Q10 40 10 36 Z" fill="currentColor" fill-opacity="0.08"/>
    <circle cx="22" cy="26" r="1.6" fill="currentColor"/>
    <circle cx="30" cy="26" r="1.6" fill="currentColor"/>
    <circle cx="38" cy="26" r="1.6" fill="currentColor"/>
  </symbol>
  <symbol id="prop-spark" viewBox="0 0 64 64" fill="none" stroke="currentColor" stroke-width="1.4" stroke-linecap="round" stroke-linejoin="round">
    <path d="M32 8 L34 26 L52 28 L34 30 L32 48 L30 30 L12 28 L30 26 Z" fill="currentColor" fill-opacity="0.15"/>
    <path d="M48 50 L49 54 L53 55 L49 56 L48 60 L47 56 L43 55 L47 54 Z" fill="currentColor" fill-opacity="0.4"/>
  </symbol>
</svg>
