<svg viewBox="0 0 120 80" xmlns="http://www.w3.org/2000/svg">
  <defs><linearGradient id="sand-g" x1="0" x2="0" y1="0" y2="1">
    <stop offset="0%" stop-color="#E8C878"/><stop offset="100%" stop-color="#B89A58"/>
  </linearGradient></defs>
  <rect width="120" height="80" fill="url(#sand-g)"/>
  <path d="M0,20 Q60,15 120,22" stroke="#9A7E3C" stroke-width="0.7" fill="none" opacity="0.7"/>
  <path d="M0,35 Q60,30 120,37" stroke="#9A7E3C" stroke-width="0.7" fill="none" opacity="0.7"/>
  <path d="M0,50 Q60,45 120,52" stroke="#9A7E3C" stroke-width="0.7" fill="none" opacity="0.7"/>
  <path d="M0,65 Q60,60 120,67" stroke="#9A7E3C" stroke-width="0.7" fill="none" opacity="0.7"/>
  <circle cx="3" cy="4" r="0.6" fill="#7A5818" opacity="0.5"/>
  <circle cx="10" cy="15" r="0.6" fill="#7A5818" opacity="0.5"/>
  <circle cx="17" cy="26" r="0.6" fill="#7A5818" opacity="0.5"/>
  <circle cx="24" cy="37" r="0.6" fill="#7A5818" opacity="0.5"/>
  <circle cx="31" cy="48" r="0.6" fill="#7A5818" opacity="0.5"/>
  <circle cx="38" cy="59" r="0.6" fill="#7A5818" opacity="0.5"/>
  <circle cx="45" cy="70" r="0.6" fill="#7A5818" opacity="0.5"/>
  <circle cx="52" cy="5" r="0.6" fill="#7A5818" opacity="0.5"/>
  <circle cx="59" cy="16" r="0.6" fill="#7A5818" opacity="0.5"/>
  <circle cx="66" cy="27" r="0.6" fill="#7A5818" opacity="0.5"/>
  <circle cx="73" cy="38" r="0.6" fill="#7A5818" opacity="0.5"/>
  <circle cx="80" cy="49" r="0.6" fill="#7A5818" opacity="0.5"/>
  <circle cx="87" cy="60" r="0.6" fill="#7A5818" opacity="0.5"/>
  <circle cx="94" cy="71" r="0.6" fill="#7A5818" opacity="0.5"/>
  <circle cx="101" cy="6" r="0.6" fill="#7A5818" opacity="0.5"/>
  <circle cx="108" cy="17" r="0.6" fill="#7A5818" opacity="0.5"/>
  <circle cx="115" cy="28" r="0.6" fill="#7A5818" opacity="0.5"/>
  <circle cx="2" cy="39" r="0.6" fill="#7A5818" opacity="0.5"/>
  <circle cx="9" cy="50" r="0.6" fill="#7A5818" opacity="0.5"/>
  <circle cx="16" cy="61" r="0.6" fill="#7A5818" opacity="0.5"/>
  <circle cx="23" cy="72" r="0.6" fill="#7A5818" opacity="0.5"/>
  <circle cx="30" cy="7" r="0.6" fill="#7A5818" opacity="0.5"/>
  <circle cx="37" cy="18" r="0.6" fill="#7A5818" opacity="0.5"/>
  <circle cx="44" cy="29" r="0.6" fill="#7A5818" opacity="0.5"/>
  <circle cx="51" cy="40" r="0.6" fill="#7A5818" opacity="0.5"/>
  <circle cx="58" cy="51" r="0.6" fill="#7A5818" opacity="0.5"/>
  <circle cx="65" cy="62" r="0.6" fill="#7A5818" opacity="0.5"/>
  <circle cx="72" cy="73" r="0.6" fill="#7A5818" opacity="0.5"/>
  <circle cx="79" cy="8" r="0.6" fill="#7A5818" opacity="0.5"/>
  <circle cx="86" cy="19" r="0.6" fill="#7A5818" opacity="0.5"/>
</svg>
