<svg viewBox="0 0 120 80" xmlns="http://www.w3.org/2000/svg">
  <rect width="120" height="80" fill="#1E4A5C"/>
  <path d="M0,10 Q30,6 60,10 T120,10" stroke="#5BD4D0" stroke-width="1" fill="none" opacity="0.50"/>
  <path d="M0,26 Q30,22 60,26 T120,26" stroke="#5BD4D0" stroke-width="1" fill="none" opacity="0.44"/>
  <path d="M0,42 Q30,38 60,42 T120,42" stroke="#5BD4D0" stroke-width="1" fill="none" opacity="0.38"/>
  <path d="M0,58 Q30,54 60,58 T120,58" stroke="#5BD4D0" stroke-width="1" fill="none" opacity="0.32"/>
  <path d="M0,74 Q30,70 60,74 T120,74" stroke="#5BD4D0" stroke-width="1" fill="none" opacity="0.26"/>
  <circle cx="5" cy="15" r="1" fill="#82E2DF" opacity="0.7"/>
  <circle cx="20" cy="24" r="1" fill="#82E2DF" opacity="0.7"/>
  <circle cx="35" cy="33" r="1" fill="#82E2DF" opacity="0.7"/>
  <circle cx="50" cy="42" r="1" fill="#82E2DF" opacity="0.7"/>
  <circle cx="65" cy="51" r="1" fill="#82E2DF" opacity="0.7"/>
  <circle cx="80" cy="60" r="1" fill="#82E2DF" opacity="0.7"/>
  <circle cx="95" cy="69" r="1" fill="#82E2DF" opacity="0.7"/>
  <circle cx="110" cy="6" r="1" fill="#82E2DF" opacity="0.7"/>
</svg>
